Mertz-Regular-FF.ufo
<glyph name="exclam" format="1">
  <advance width="474"/>
  <unicode hex="0021"/>
  <outline>
    <component base="period" xOffset="-14"/>
    <contour>
      <point x="212" y="344" type="line"/>
      <point x="155" y="1241" type="line"/>
      <point x="320" y="1241" type="line"/>
      <point x="263" y="344" type="line"/>
    </contour>
  </outline>
</glyph>
<glyph name="quotedbl" format="1">
  <advance width="681"/>
  <unicode hex="0022"/>
  <outline>
    <contour>
      <point x="197" y="780" type="line"/>
      <point x="142" y="1302" type="line"/>
      <point x="305" y="1302" type="line"/>
      <point x="250" y="780" type="line"/>
    </contour>
    <contour>
      <point x="433" y="780" type="line"/>
      <point x="378" y="1302" type="line"/>
      <point x="541" y="1302" type="line"/>
      <point x="485" y="780" type="line"/>
    </contour>
  </outline>
</glyph>
<glyph name="numbersign" format="1">
  <advance width="1151"/>
  <unicode hex="0023"/>
  <outline>
    <contour>
      <point x="156" y="724" type="line"/>
      <point x="156" y="824" type="line"/>
      <point x="364" y="824" type="line"/>
      <point x="480" y="1241" type="line"/>
      <point x="611" y="1241" type="line"/>
      <point x="495" y="824" type="line"/>
      <point x="760" y="824" type="line"/>
      <point x="876" y="1241" type="line"/>
      <point x="1007" y="1241" type="line"/>
      <point x="891" y="824" type="line"/>
      <point x="1046" y="824" type="line"/>
      <point x="1046" y="724" type="line"/>
      <point x="863" y="724" type="line"/>
      <point x="804" y="513" type="line"/>
      <point x="996" y="513" type="line"/>
      <point x="996" y="414" type="line"/>
      <point x="776" y="414" type="line"/>
      <point x="661" y="0" type="line"/>
      <point x="532" y="0" type="line"/>
      <point x="647" y="414" type="line"/>
      <point x="380" y="414" type="line"/>
      <point x="265" y="0" type="line"/>
      <point x="136" y="0" type="line"/>
      <point x="251" y="414" type="line"/>
      <point x="106" y="414" type="line"/>
      <point x="106" y="513" type="line"/>
      <point x="278" y="513" type="line"/>
      <point x="337" y="724" type="line"/>
    </contour>
    <contour>
      <point x="733" y="724" type="line"/>
      <point x="467" y="724" type="line"/>
      <point x="408" y="513" type="line"/>
      <point x="674" y="513" type="line"/>
    </contour>
  </outline>
</glyph>
<glyph name="dollar" format="1">
  <advance width="969"/>
  <unicode hex="0024"/>
  <outline>
    <contour>
      <point x="553.902" y="-32.1056" type="curve"/>
      <point x="553.935" y="-115.07"/>
      <point x="553.967" y="-198.035"/>
      <point x="554" y="-281" type="curve"/>
      <point x="479" y="-281" type="line"/>
      <point x="479" y="-33.4464" type="line"/>
      <point x="286.472" y="-26.2896"/>
      <point x="174.919" y="48.2581"/>
      <point x="134" y="73" type="curve"/>
      <point x="134" y="216" type="line"/>
      <point x="211" y="164"/>
      <point x="347" y="103"/>
      <point x="498" y="103" type="curve" smooth="yes"/>
      <point x="648" y="103"/>
      <point x="722" y="176"/>
      <point x="722" y="283" type="curve" smooth="yes"/>
      <point x="722" y="357"/>
      <point x="674.227" y="429.783"/>
      <point x="565" y="500" type="curve" smooth="yes"/>
      <point x="299" y="671" type="line"/>
      <point x="182" y="745"/>
      <point x="103" y="845"/>
      <point x="103" y="959" type="curve" smooth="yes"/>
      <point x="103" y="1127.89"/>
      <point x="228.648" y="1271.33"/>
      <point x="478" y="1273.96" type="curve"/>
      <point x="478" y="1557.8" type="line"/>
      <point x="552" y="1557.8" type="line"/>
      <point x="552.191" y="1271.05" type="line"/>
      <point x="681.736" y="1259.7"/>
      <point x="778.413" y="1218.47"/>
      <point x="817" y="1199" type="curve"/>
      <point x="817" y="1056" type="line"/>
      <point x="744" y="1095"/>
      <point x="611" y="1139"/>
      <point x="504" y="1139" type="curve" smooth="yes"/>
      <point x="332" y="1139"/>
      <point x="261" y="1060"/>
      <point x="261" y="966" type="curve" smooth="yes"/>
      <point x="261" y="893"/>
      <point x="315" y="833"/>
      <point x="399" y="778" type="curve" smooth="yes"/>
      <point x="645" y="620" type="line"/>
      <point x="820" y="506"/>
      <point x="880" y="409"/>
      <point x="880" y="289" type="curve" smooth="yes"/>
      <point x="880" y="84.5083"/>
      <point x="727.272" y="-17.3165"/>
    </contour>
  </outline>
</glyph>
<glyph name="percent" format="1">
  <advance width="1432"/>
  <unicode hex="0025"/>
  <outline>
    <component base="o" xScale="0.6" yScale="0.6" xOffset="756.8" yOffset="12"/>
    <component base="o" xScale="0.6" yScale="0.6" xOffset="8.7998" yOffset="729"/>
    <contour>
      <point x="295.8" y="0" type="line"/>
      <point x="1013.8" y="1241" type="line"/>
      <point x="1133.8" y="1241" type="line"/>
      <point x="413.8" y="0" type="line"/>
    </contour>
  </outline>
</glyph>
<glyph name="ampersand" format="1">
  <advance width="1322"/>
  <unicode hex="0026"/>
  <outline>
    <contour>
      <point x="556" y="-34" type="curve" smooth="yes"/>
      <point x="277" y="-34"/>
      <point x="128" y="149.525"/>
      <point x="128" y="315" type="curve" smooth="yes"/>
      <point x="128" y="474"/>
      <point x="199" y="601"/>
      <point x="374" y="706" type="curve"/>
      <point x="358" y="723" type="line"/>
      <point x="236" y="849"/>
      <point x="196" y="942"/>
      <point x="196" y="1022" type="curve" smooth="yes"/>
      <point x="196" y="1202.14"/>
      <point x="378" y="1274"/>
      <point x="508" y="1274" type="curve" smooth="yes"/>
      <point x="737" y="1274"/>
      <point x="838" y="1159.6"/>
      <point x="840" y="1029" type="curve" smooth="yes"/>
      <point x="840" y="1023" type="line" smooth="yes"/>
      <point x="840" y="897"/>
      <point x="757" y="768"/>
      <point x="574" y="674" type="curve"/>
      <point x="954" y="279" type="line"/>
      <point x="1014" y="338"/>
      <point x="1065" y="408"/>
      <point x="1100" y="479" type="curve"/>
      <point x="1206" y="414" type="line"/>
      <point x="1176" y="340"/>
      <point x="1120" y="259"/>
      <point x="1045" y="186" type="curve"/>
      <point x="1176" y="49" type="line"/>
      <point x="1082" y="-34" type="line"/>
      <point x="949" y="105" type="line"/>
      <point x="838" y="23.4131"/>
      <point x="702" y="-34"/>
    </contour>
    <contour>
      <point x="460" y="616" type="line"/>
      <point x="318" y="533"/>
      <point x="272" y="440"/>
      <point x="272" y="328" type="curve" smooth="yes"/>
      <point x="272" y="227"/>
      <point x="354" y="98"/>
      <point x="558" y="98" type="curve" smooth="yes"/>
      <point x="665" y="98"/>
      <point x="768" y="138"/>
      <point x="858" y="200" type="curve"/>
    </contour>
    <contour>
      <point x="487" y="765" type="line"/>
      <point x="642" y="835"/>
      <point x="710" y="931"/>
      <point x="710" y="1020" type="curve" smooth="yes"/>
      <point x="710" y="1100.67"/>
      <point x="650" y="1165"/>
      <point x="532" y="1165" type="curve" smooth="yes"/>
      <point x="438" y="1165"/>
      <point x="331" y="1135.39"/>
      <point x="331" y="1019" type="curve" smooth="yes"/>
      <point x="331" y="968"/>
      <point x="360" y="899"/>
      <point x="440" y="814" type="curve"/>
    </contour>
  </outline>
</glyph>
<glyph name="parenleft" format="1">
  <advance width="485"/>
  <unicode hex="0028"/>
  <outline>
    <contour>
      <point x="240" y="-44" type="line"/>
      <point x="146" y="156"/>
      <point x="99" y="393"/>
      <point x="99" y="651" type="curve" smooth="yes"/>
      <point x="99" y="908"/>
      <point x="146" y="1145"/>
      <point x="240" y="1345" type="curve"/>
      <point x="402" y="1345" type="line"/>
      <point x="309" y="1134"/>
      <point x="266" y="887"/>
      <point x="266" y="651" type="curve" smooth="yes"/>
      <point x="266" y="414"/>
      <point x="309" y="166"/>
      <point x="403" y="-44" type="curve"/>
    </contour>
  </outline>
</glyph>
<glyph name="parenright" format="1">
  <advance width="485"/>
  <unicode hex="0029"/>
  <outline>
    <contour>
      <point x="86" y="-44" type="line"/>
      <point x="179" y="166"/>
      <point x="222" y="414"/>
      <point x="222" y="650" type="curve" smooth="yes"/>
      <point x="222" y="886"/>
      <point x="179" y="1134"/>
      <point x="85" y="1345" type="curve"/>
      <point x="247" y="1345" type="line"/>
      <point x="341" y="1145"/>
      <point x="388" y="907"/>
      <point x="388" y="650" type="curve" smooth="yes"/>
      <point x="388" y="393"/>
      <point x="342" y="155"/>
      <point x="248" y="-44" type="curve"/>
    </contour>
  </outline>
</glyph>
<glyph name="asterisk" format="1">
  <advance width="1048"/>
  <unicode hex="002A"/>
  <outline>
    <contour>
      <point x="310" y="478" type="line"/>
      <point x="217" y="562" type="line"/>
      <point x="455" y="824" type="line"/>
      <point x="132" y="939" type="line"/>
      <point x="178" y="1052" type="line"/>
      <point x="483" y="902" type="line"/>
      <point x="453" y="1248" type="line"/>
      <point x="592" y="1248" type="line"/>
      <point x="563" y="902" type="line"/>
      <point x="869" y="1052" type="line"/>
      <point x="915" y="939" type="line"/>
      <point x="591" y="824" type="line"/>
      <point x="830" y="562" type="line"/>
      <point x="737" y="478" type="line"/>
      <point x="523" y="773" type="line"/>
    </contour>
  </outline>
</glyph>
<glyph name="plus" format="1">
  <advance width="868"/>
  <unicode hex="002B"/>
  <outline>
    <contour>
      <point x="376" y="312" type="line"/>
      <point x="376" y="539" type="line"/>
      <point x="148" y="539" type="line"/>
      <point x="148" y="653" type="line"/>
      <point x="376" y="653" type="line"/>
      <point x="376" y="882" type="line"/>
      <point x="490" y="882" type="line"/>
      <point x="490" y="653" type="line"/>
      <point x="719" y="653" type="line"/>
      <point x="719" y="539" type="line"/>
      <point x="490" y="539" type="line"/>
      <point x="490" y="312" type="line"/>
    </contour>
  </outline>
</glyph>
<glyph name="comma" format="1">
  <advance width="493"/>
  <unicode hex="002C"/>
  <outline>
    <contour>
      <point x="128" y="-163" type="line"/>
      <point x="167" y="-112"/>
      <point x="208" y="-64"/>
      <point x="221" y="-11" type="curve"/>
      <point x="175" y="3"/>
      <point x="149" y="45"/>
      <point x="149" y="88" type="curve" smooth="yes"/>
      <point x="149" y="139"/>
      <point x="187" y="192"/>
      <point x="256" y="192" type="curve" smooth="yes"/>
      <point x="323" y="192"/>
      <point x="360" y="138"/>
      <point x="360" y="88" type="curve" smooth="yes"/>
      <point x="360" y="22"/>
      <point x="315" y="-60"/>
      <point x="193" y="-163" type="curve"/>
    </contour>
  </outline>
</glyph>
<glyph name="hyphen" format="1">
  <advance width="877"/>
  <unicode hex="002D"/>
  <unicode hex="2013"/>
  <unicode hex="2014"/>
  <outline>
    <contour>
      <point x="153" y="535" type="line"/>
      <point x="153" y="660" type="line"/>
      <point x="723" y="660" type="line"/>
      <point x="723" y="535" type="line"/>
    </contour>
  </outline>
</glyph>
<glyph name="period" format="1">
  <advance width="506"/>
  <unicode hex="002E"/>
  <outline>
    <contour>
      <point x="254" y="-16" type="curve" smooth="yes"/>
      <point x="185" y="-16"/>
      <point x="148" y="36"/>
      <point x="148" y="88" type="curve" smooth="yes"/>
      <point x="148" y="139"/>
      <point x="185" y="192"/>
      <point x="254" y="192" type="curve" smooth="yes"/>
      <point x="321" y="192"/>
      <point x="358" y="138"/>
      <point x="358" y="88" type="curve" smooth="yes"/>
      <point x="358" y="36"/>
      <point x="321" y="-16"/>
    </contour>
  </outline>
</glyph>
<glyph name="slash" format="1">
  <advance width="832"/>
  <unicode hex="002F"/>
  <outline>
    <contour>
      <point x="62" y="0" type="line"/>
      <point x="618" y="1241" type="line"/>
      <point x="767" y="1241" type="line"/>
      <point x="210" y="0" type="line"/>
    </contour>
  </outline>
</glyph>
<glyph name="two" format="1">
  <advance width="953"/>
  <unicode hex="0032"/>
  <outline>
    <contour>
      <point x="75" y="0" type="line"/>
      <point x="527" y="605" type="line" smooth="yes"/>
      <point x="609" y="714"/>
      <point x="673" y="805"/>
      <point x="673" y="927" type="curve" smooth="yes"/>
      <point x="673" y="1066"/>
      <point x="578" y="1136"/>
      <point x="465" y="1136" type="curve" smooth="yes"/>
      <point x="350" y="1136"/>
      <point x="224" y="1064"/>
      <point x="185" y="1030" type="curve"/>
      <point x="126" y="1155" type="line"/>
      <point x="175" y="1198"/>
      <point x="327" y="1274"/>
      <point x="475" y="1274" type="curve" smooth="yes"/>
      <point x="688" y="1274"/>
      <point x="835" y="1131"/>
      <point x="835" y="915" type="curve" smooth="yes"/>
      <point x="835" y="765"/>
      <point x="754" y="646"/>
      <point x="641" y="499" type="curve" smooth="yes"/>
      <point x="361" y="136" type="line"/>
      <point x="842" y="136" type="line"/>
      <point x="842" y="0" type="line"/>
    </contour>
  </outline>
</glyph>
<glyph name="five" format="1">
  <advance width="984"/>
  <unicode hex="0035"/>
  <outline>
    <contour>
      <point x="475" y="-34" type="curve" smooth="yes"/>
      <point x="334" y="-34"/>
      <point x="191" y="21"/>
      <point x="128" y="81" type="curve"/>
      <point x="166" y="211" type="line"/>
      <point x="217" y="170"/>
      <point x="333" y="105"/>
      <point x="471" y="105" type="curve" smooth="yes"/>
      <point x="637" y="105"/>
      <point x="738" y="207"/>
      <point x="738" y="360" type="curve" smooth="yes"/>
      <point x="738" y="494"/>
      <point x="639" y="619"/>
      <point x="492" y="619" type="curve" smooth="yes"/>
      <point x="423" y="619"/>
      <point x="349" y="600"/>
      <point x="305" y="547" type="curve"/>
      <point x="183" y="573" type="line"/>
      <point x="210" y="1241" type="line"/>
      <point x="803" y="1241" type="line"/>
      <point x="789" y="1098" type="line"/>
      <point x="342" y="1098" type="line"/>
      <point x="337" y="983"/>
      <point x="327" y="819"/>
      <point x="323" y="703" type="curve"/>
      <point x="380" y="738"/>
      <point x="457" y="749"/>
      <point x="515" y="749" type="curve" smooth="yes"/>
      <point x="713" y="749"/>
      <point x="895" y="603"/>
      <point x="895" y="357" type="curve" smooth="yes"/>
      <point x="895" y="118"/>
      <point x="740" y="-34"/>
    </contour>
  </outline>
</glyph>
<glyph name="six" format="1">
  <advance width="1112"/>
  <unicode hex="0036"/>
  <outline>
    <contour>
      <point x="590" y="616" type="curve" smooth="yes"/>
      <point x="420" y="616"/>
      <point x="341" y="497"/>
      <point x="341" y="357" type="curve" smooth="yes"/>
      <point x="341" y="216"/>
      <point x="424" y="100"/>
      <point x="584" y="100" type="curve" smooth="yes"/>
      <point x="743" y="100"/>
      <point x="847" y="220"/>
      <point x="847" y="363" type="curve" smooth="yes"/>
      <point x="847" y="512"/>
      <point x="746" y="616"/>
    </contour>
    <contour>
      <point x="862" y="1241" type="line"/>
      <point x="454" y="698" type="line"/>
      <point x="496" y="726"/>
      <point x="569" y="741"/>
      <point x="621" y="741" type="curve" smooth="yes"/>
      <point x="815" y="741"/>
      <point x="1002" y="595"/>
      <point x="1002" y="363" type="curve" smooth="yes"/>
      <point x="1002" y="132.419"/>
      <point x="824" y="-34"/>
      <point x="590" y="-34" type="curve" smooth="yes"/>
      <point x="343" y="-34"/>
      <point x="188" y="144.439"/>
      <point x="188" y="372" type="curve" smooth="yes"/>
      <point x="188" y="536"/>
      <point x="237" y="646"/>
      <point x="355" y="816" type="curve"/>
      <point x="428" y="924"/>
      <point x="677" y="1241"/>
      <point x="677" y="1241" type="curve"/>
    </contour>
  </outline>
</glyph>
<glyph name="equal" format="1">
  <advance width="951"/>
  <unicode hex="003D"/>
  <outline>
    <contour>
      <point x="153" y="647" type="line"/>
      <point x="153" y="756" type="line"/>
      <point x="797" y="756" type="line"/>
      <point x="797" y="647" type="line"/>
    </contour>
    <contour>
      <point x="153" y="385" type="line"/>
      <point x="153" y="494" type="line"/>
      <point x="797" y="494" type="line"/>
      <point x="797" y="385" type="line"/>
    </contour>
  </outline>
</glyph>
<glyph name="greater" format="1">
  <advance width="1000"/>
  <unicode hex="003E"/>
  <outline>
    <contour>
      <point x="78" y="-25" type="line"/>
      <point x="78" y="142" type="line"/>
      <point x="653" y="408" type="line"/>
      <point x="78" y="664" type="line"/>
      <point x="78" y="829" type="line"/>
      <point x="944" y="407" type="line"/>
    </contour>
  </outline>
</glyph>
<glyph name="question" format="1">
  <advance width="889"/>
  <unicode hex="003F"/>
  <outline>
    <component base="period" xOffset="20"/>
    <contour>
      <point x="232" y="361" type="line"/>
      <point x="553" y="720"/>
      <point x="627" y="809"/>
      <point x="627" y="942" type="curve" smooth="yes"/>
      <point x="627" y="1075"/>
      <point x="527" y="1136"/>
      <point x="417" y="1136" type="curve" smooth="yes"/>
      <point x="312" y="1136"/>
      <point x="206" y="1085"/>
      <point x="146" y="1040" type="curve"/>
      <point x="84" y="1158" type="line"/>
      <point x="134" y="1200"/>
      <point x="283" y="1274"/>
      <point x="431" y="1274" type="curve" smooth="yes"/>
      <point x="634" y="1274"/>
      <point x="792" y="1158"/>
      <point x="792" y="947" type="curve" smooth="yes"/>
      <point x="792" y="767"/>
      <point x="649" y="637"/>
      <point x="365" y="361" type="curve"/>
    </contour>
  </outline>
</glyph>
<glyph name="at" format="1">
  <advance width="1559"/>
  <unicode hex="0040"/>
  <outline>
    <contour>
      <point x="721" y="304" type="line" smooth="yes"/>
      <point x="802" y="305"/>
      <point x="867" y="365"/>
      <point x="903" y="423" type="curve"/>
      <point x="903" y="811" type="line"/>
      <point x="626" y="811"/>
      <point x="575" y="637"/>
      <point x="575" y="510" type="curve" smooth="yes"/>
      <point x="575" y="496"/>
      <point x="576" y="483"/>
      <point x="577" y="470" type="curve" smooth="yes"/>
      <point x="585" y="374"/>
      <point x="638" y="304"/>
      <point x="718" y="304" type="curve" smooth="yes"/>
    </contour>
    <contour>
      <point x="801" y="-101" type="curve" smooth="yes"/>
      <point x="448" y="-101"/>
      <point x="141" y="121"/>
      <point x="141" y="522" type="curve" smooth="yes"/>
      <point x="141" y="829"/>
      <point x="327" y="1180"/>
      <point x="843" y="1180" type="curve" smooth="yes"/>
      <point x="1238" y="1180"/>
      <point x="1422" y="906"/>
      <point x="1422" y="613" type="curve" smooth="yes"/>
      <point x="1422" y="339"/>
      <point x="1259" y="201"/>
      <point x="1111" y="201" type="curve" smooth="yes"/>
      <point x="1027" y="201"/>
      <point x="949" y="236"/>
      <point x="922" y="351" type="curve"/>
      <point x="858" y="229"/>
      <point x="767" y="203"/>
      <point x="707" y="203" type="curve" smooth="yes"/>
      <point x="552" y="203"/>
      <point x="459" y="343"/>
      <point x="451" y="482" type="curve" smooth="yes"/>
      <point x="451" y="489"/>
      <point x="450" y="498"/>
      <point x="450" y="508" type="curve" smooth="yes"/>
      <point x="450" y="631"/>
      <point x="499" y="907"/>
      <point x="919" y="907" type="curve" smooth="yes"/>
      <point x="954" y="907"/>
      <point x="996" y="905"/>
      <point x="1037" y="901" type="curve"/>
      <point x="1037" y="471" type="line" smooth="yes"/>
      <point x="1037" y="378"/>
      <point x="1042" y="292"/>
      <point x="1122" y="292" type="curve" smooth="yes"/>
      <point x="1215" y="292"/>
      <point x="1297" y="394"/>
      <point x="1297" y="607" type="curve" smooth="yes"/>
      <point x="1297" y="920"/>
      <point x="1093" y="1069"/>
      <point x="847" y="1069" type="curve" smooth="yes"/>
      <point x="413" y="1069"/>
      <point x="267" y="781"/>
      <point x="267" y="522" type="curve" smooth="yes"/>
      <point x="267" y="188"/>
      <point x="496" y="8"/>
      <point x="814" y="8" type="curve" smooth="yes"/>
      <point x="1010" y="8"/>
      <point x="1184" y="86"/>
      <point x="1273" y="138" type="curve"/>
      <point x="1303" y="41" type="line"/>
      <point x="1212" y="-13"/>
      <point x="1024" y="-101"/>
    </contour>
  </outline>
</glyph>
<glyph name="A" format="1">
  <advance width="1284"/>
  <unicode hex="0041"/>
  <outline>
    <contour>
      <point x="419" y="409" type="line"/>
      <point x="871" y="409" type="line"/>
      <point x="641" y="953" type="line"/>
    </contour>
    <contour>
      <point x="77" y="0" type="line"/>
      <point x="641" y="1270" type="line"/>
      <point x="1207" y="0" type="line"/>
      <point x="1040" y="0" type="line"/>
      <point x="904" y="297" type="line"/>
      <point x="377" y="297" type="line"/>
      <point x="246" y="0" type="line"/>
    </contour>
  </outline>
</glyph>
<glyph name="B" format="1">
  <advance width="1087"/>
  <unicode hex="0042"/>
  <outline>
    <contour>
      <point x="320" y="735" type="line"/>
      <point x="470" y="735" type="line" smooth="yes"/>
      <point x="576" y="735"/>
      <point x="786" y="736"/>
      <point x="786" y="932" type="curve" smooth="yes"/>
      <point x="786" y="1083"/>
      <point x="669" y="1118"/>
      <point x="470" y="1118" type="curve" smooth="yes"/>
      <point x="320" y="1118" type="line"/>
    </contour>
    <contour>
      <point x="320" y="124" type="line"/>
      <point x="504" y="124" type="line" smooth="yes"/>
      <point x="746" y="124"/>
      <point x="849" y="199"/>
      <point x="849" y="360" type="curve" smooth="yes"/>
      <point x="849" y="518"/>
      <point x="709" y="617"/>
      <point x="490" y="617" type="curve" smooth="yes"/>
      <point x="320" y="617" type="line"/>
    </contour>
    <contour>
      <point x="156" y="0" type="line"/>
      <point x="156" y="1241" type="line"/>
      <point x="479" y="1241" type="line" smooth="yes"/>
      <point x="798" y="1241"/>
      <point x="928" y="1132"/>
      <point x="928" y="934" type="curve" smooth="yes"/>
      <point x="928" y="834"/>
      <point x="866" y="717"/>
      <point x="724" y="681" type="curve"/>
      <point x="855" y="649"/>
      <point x="1005" y="538"/>
      <point x="1005" y="359" type="curve" smooth="yes"/>
      <point x="1005" y="111"/>
      <point x="833" y="0"/>
      <point x="516" y="0" type="curve" smooth="yes"/>
    </contour>
  </outline>
</glyph>
<glyph name="E" format="1">
  <advance width="973"/>
  <unicode hex="0045"/>
  <outline>
    <contour>
      <point x="186" y="0" type="line"/>
      <point x="186" y="1241" type="line"/>
      <point x="906" y="1241" type="line"/>
      <point x="906" y="1104" type="line"/>
      <point x="348" y="1104" type="line"/>
      <point x="348" y="708" type="line"/>
      <point x="843" y="708" type="line"/>
      <point x="843" y="572" type="line"/>
      <point x="346" y="572" type="line"/>
      <point x="346" y="139" type="line"/>
      <point x="916" y="139" type="line"/>
      <point x="916" y="0" type="line"/>
    </contour>
  </outline>
</glyph>
<glyph name="F" format="1">
  <advance width="931"/>
  <unicode hex="0046"/>
  <outline>
    <contour>
      <point x="186" y="0" type="line"/>
      <point x="186" y="1241" type="line"/>
      <point x="830" y="1241" type="line"/>
      <point x="830" y="1104" type="line"/>
      <point x="348" y="1104" type="line"/>
      <point x="348" y="730" type="line"/>
      <point x="764" y="730" type="line"/>
      <point x="764" y="593" type="line"/>
      <point x="347" y="593" type="line"/>
      <point x="347" y="0" type="line"/>
    </contour>
  </outline>
</glyph>
<glyph name="G" format="1">
  <advance width="1391"/>
  <unicode hex="0047"/>
  <outline>
    <contour>
      <point x="757" y="-34" type="curve" smooth="yes"/>
      <point x="424" y="-34"/>
      <point x="95" y="196"/>
      <point x="95" y="621" type="curve" smooth="yes"/>
      <point x="95" y="1025"/>
      <point x="399" y="1274"/>
      <point x="771" y="1274" type="curve" smooth="yes"/>
      <point x="954" y="1274"/>
      <point x="1127" y="1207"/>
      <point x="1181" y="1184" type="curve"/>
      <point x="1181" y="1038" type="line"/>
      <point x="1053" y="1102"/>
      <point x="914" y="1136"/>
      <point x="785" y="1136" type="curve" smooth="yes"/>
      <point x="500" y="1136"/>
      <point x="262" y="974"/>
      <point x="262" y="621" type="curve" smooth="yes"/>
      <point x="262" y="261"/>
      <point x="516" y="104"/>
      <point x="778" y="104" type="curve" smooth="yes"/>
      <point x="990" y="104"/>
      <point x="1122" y="176"/>
      <point x="1137" y="182" type="curve"/>
      <point x="1137" y="539" type="line"/>
      <point x="794" y="539" type="line"/>
      <point x="794" y="672" type="line"/>
      <point x="1291" y="672" type="line"/>
      <point x="1291" y="105" type="line"/>
      <point x="1163" y="31"/>
      <point x="1025" y="-34"/>
    </contour>
  </outline>
</glyph>
<glyph name="H" format="1">
  <advance width="1338"/>
  <unicode hex="0048"/>
  <outline>
    <contour>
      <point x="156.5" y="0" type="line"/>
      <point x="156.5" y="1241" type="line"/>
      <point x="321.5" y="1241" type="line"/>
      <point x="321.5" y="721" type="line"/>
      <point x="1016.5" y="721" type="line"/>
      <point x="1016.5" y="1241" type="line"/>
      <point x="1181.5" y="1241" type="line"/>
      <point x="1181.5" y="0" type="line"/>
      <point x="1016.5" y="0" type="line"/>
      <point x="1016.5" y="585" type="line"/>
      <point x="321.5" y="585" type="line"/>
      <point x="321.5" y="0" type="line"/>
    </contour>
  </outline>
</glyph>
<glyph name="I" format="1">
  <advance width="586"/>
  <unicode hex="0049"/>
  <outline>
    <contour>
      <point x="210.5" y="0" type="line"/>
      <point x="210.5" y="1241" type="line"/>
      <point x="375.5" y="1241" type="line"/>
      <point x="375.5" y="0" type="line"/>
    </contour>
  </outline>
</glyph>
<glyph name="K" format="1">
  <advance width="1138"/>
  <unicode hex="004B"/>
  <outline>
    <contour>
      <point x="156" y="0" type="line"/>
      <point x="156" y="1241" type="line"/>
      <point x="320" y="1241" type="line"/>
      <point x="320" y="674" type="line"/>
      <point x="873" y="1241" type="line"/>
      <point x="1071" y="1241" type="line"/>
      <point x="490" y="641" type="line"/>
      <point x="1113" y="0" type="line"/>
      <point x="910" y="0" type="line"/>
      <point x="320" y="608" type="line"/>
      <point x="320" y="0" type="line"/>
    </contour>
  </outline>
</glyph>
<glyph name="M" format="1">
  <advance width="1688"/>
  <unicode hex="004D"/>
  <outline>
    <contour>
      <point x="844.5" y="17" type="line"/>
      <point x="380.5" y="835" type="line"/>
      <point x="251.5" y="0" type="line"/>
      <point x="88.5" y="0" type="line"/>
      <point x="297.5" y="1282" type="line"/>
      <point x="843.5" y="304" type="line"/>
      <point x="1391.5" y="1282" type="line"/>
      <point x="1599.5" y="0" type="line"/>
      <point x="1437.5" y="0" type="line"/>
      <point x="1307.5" y="835" type="line"/>
    </contour>
  </outline>
</glyph>
<glyph name="N" format="1">
  <advance width="1362"/>
  <unicode hex="004E"/>
  <outline>
    <contour>
      <point x="1205.5" y="-37" type="line"/>
      <point x="321.5" y="892" type="line"/>
      <point x="321.5" y="0" type="line"/>
      <point x="156.5" y="0" type="line"/>
      <point x="156.5" y="1273" type="line"/>
      <point x="1040.5" y="339" type="line"/>
      <point x="1040.5" y="1241" type="line"/>
      <point x="1205.5" y="1241" type="line"/>
    </contour>
  </outline>
</glyph>
<glyph name="O" format="1">
  <advance width="1526"/>
  <unicode hex="004F"/>
  <outline>
    <contour>
      <point x="762" y="-34" type="curve" smooth="yes"/>
      <point x="425" y="-34"/>
      <point x="97" y="183"/>
      <point x="97" y="619" type="curve" smooth="yes"/>
      <point x="97" y="1058"/>
      <point x="425" y="1274"/>
      <point x="761" y="1274" type="curve" smooth="yes"/>
      <point x="1099" y="1274"/>
      <point x="1429" y="1058"/>
      <point x="1429" y="623" type="curve" smooth="yes"/>
      <point x="1429" y="183"/>
      <point x="1099" y="-34"/>
    </contour>
    <contour>
      <point x="761" y="104" type="curve" smooth="yes"/>
      <point x="1003" y="104"/>
      <point x="1262" y="270"/>
      <point x="1262" y="618" type="curve" smooth="yes"/>
      <point x="1262" y="970"/>
      <point x="1024" y="1137"/>
      <point x="762" y="1137" type="curve" smooth="yes"/>
      <point x="497" y="1137"/>
      <point x="264" y="970"/>
      <point x="264" y="619" type="curve" smooth="yes"/>
      <point x="264" y="269"/>
      <point x="507" y="104"/>
    </contour>
  </outline>
</glyph>
<glyph name="P" format="1">
  <advance width="1063"/>
  <unicode hex="0050"/>
  <outline>
    <contour>
      <point x="364" y="632" type="line"/>
      <point x="530" y="632" type="line" smooth="yes"/>
      <point x="723" y="632"/>
      <point x="845" y="702"/>
      <point x="845" y="877" type="curve" smooth="yes"/>
      <point x="845" y="1017"/>
      <point x="761" y="1121"/>
      <point x="525" y="1121" type="curve" smooth="yes"/>
      <point x="364" y="1121" type="line"/>
    </contour>
    <contour>
      <point x="201" y="0" type="line"/>
      <point x="201" y="1241" type="line"/>
      <point x="531" y="1241" type="line" smooth="yes"/>
      <point x="828" y="1241"/>
      <point x="1005" y="1125.32"/>
      <point x="1005" y="882" type="curve" smooth="yes"/>
      <point x="1005" y="585"/>
      <point x="773" y="519"/>
      <point x="518" y="519" type="curve" smooth="yes"/>
      <point x="365" y="519" type="line"/>
      <point x="365" y="0" type="line"/>
    </contour>
  </outline>
</glyph>
<glyph name="Q" format="1">
  <advance width="1526"/>
  <unicode hex="0051"/>
  <outline>
    <contour>
      <point x="762" y="-34" type="curve" smooth="yes"/>
      <point x="425" y="-34"/>
      <point x="97" y="183"/>
      <point x="97" y="619" type="curve" smooth="yes"/>
      <point x="97" y="1058"/>
      <point x="425" y="1274"/>
      <point x="761" y="1274" type="curve" smooth="yes"/>
      <point x="1099" y="1274"/>
      <point x="1429" y="1058"/>
      <point x="1429" y="623" type="curve" smooth="yes"/>
      <point x="1429" y="383.429"/>
      <point x="1331.17" y="209.969"/>
      <point x="1187.64" y="101.649" type="curve"/>
      <point x="1374" y="-64" type="line"/>
      <point x="1251" y="-159" type="line"/>
      <point x="1071.59" y="32.3037" type="line"/>
      <point x="976.073" y="-11.9639"/>
      <point x="869.392" y="-34"/>
    </contour>
    <contour>
      <point x="965.955" y="144.943" type="curve"/>
      <point x="889" y="227" type="line"/>
      <point x="960" y="304" type="line"/>
      <point x="1071.27" y="205.092" type="line"/>
      <point x="1182.89" y="288.941"/>
      <point x="1262" y="425.677"/>
      <point x="1262" y="618" type="curve" smooth="yes"/>
      <point x="1262" y="970"/>
      <point x="1024" y="1137"/>
      <point x="762" y="1137" type="curve" smooth="yes"/>
      <point x="497" y="1137"/>
      <point x="264" y="970"/>
      <point x="264" y="619" type="curve" smooth="yes"/>
      <point x="264" y="269"/>
      <point x="507" y="104"/>
      <point x="761" y="104" type="curve" smooth="yes"/>
      <point x="830.073" y="104"/>
      <point x="900.53" y="117.524"/>
    </contour>
  </outline>
</glyph>
<glyph name="R" format="1">
  <advance width="1102"/>
  <unicode hex="0052"/>
  <outline>
    <contour>
      <point x="364" y="677" type="line"/>
      <point x="460" y="677" type="line" smooth="yes"/>
      <point x="666" y="677"/>
      <point x="812" y="725"/>
      <point x="812" y="901" type="curve" smooth="yes"/>
      <point x="812" y="1041"/>
      <point x="728" y="1121"/>
      <point x="495" y="1121" type="curve" smooth="yes"/>
      <point x="364" y="1121" type="line"/>
    </contour>
    <contour>
      <point x="201" y="0" type="line"/>
      <point x="201" y="1241" type="line"/>
      <point x="501" y="1241" type="line" smooth="yes"/>
      <point x="793" y="1241"/>
      <point x="972" y="1135"/>
      <point x="972" y="906" type="curve" smooth="yes"/>
      <point x="972" y="682"/>
      <point x="807" y="591"/>
      <point x="568" y="576" type="curve"/>
      <point x="1058" y="0" type="line"/>
      <point x="863" y="0" type="line"/>
      <point x="399" y="564" type="line"/>
      <point x="365" y="564" type="line"/>
      <point x="365" y="0" type="line"/>
    </contour>
  </outline>
</glyph>
<glyph name="S" format="1">
  <advance width="956"/>
  <unicode hex="0053"/>
  <outline>
    <contour>
      <point x="509" y="-34" type="curve" smooth="yes"/>
      <point x="298" y="-34"/>
      <point x="177" y="47"/>
      <point x="134" y="73" type="curve"/>
      <point x="134" y="216" type="line"/>
      <point x="211" y="164"/>
      <point x="347" y="103"/>
      <point x="498" y="103" type="curve" smooth="yes"/>
      <point x="648" y="103"/>
      <point x="722" y="176"/>
      <point x="722" y="283" type="curve" smooth="yes"/>
      <point x="722" y="357"/>
      <point x="675" y="431"/>
      <point x="565" y="500" type="curve"/>
      <point x="299" y="671" type="line"/>
      <point x="182" y="745"/>
      <point x="103" y="845"/>
      <point x="103" y="959" type="curve" smooth="yes"/>
      <point x="103" y="1129.46"/>
      <point x="231" y="1274"/>
      <point x="485" y="1274" type="curve" smooth="yes"/>
      <point x="648" y="1274"/>
      <point x="772" y="1221.7"/>
      <point x="817" y="1199" type="curve"/>
      <point x="817" y="1056" type="line"/>
      <point x="744" y="1095"/>
      <point x="611" y="1139"/>
      <point x="504" y="1139" type="curve" smooth="yes"/>
      <point x="332" y="1139"/>
      <point x="261" y="1060"/>
      <point x="261" y="966" type="curve" smooth="yes"/>
      <point x="261" y="893"/>
      <point x="315" y="833"/>
      <point x="399" y="778" type="curve" smooth="yes"/>
      <point x="645" y="620" type="line"/>
      <point x="820" y="506"/>
      <point x="880" y="409"/>
      <point x="880" y="289" type="curve" smooth="yes"/>
      <point x="880" y="67"/>
      <point x="700" y="-34"/>
    </contour>
  </outline>
</glyph>
<glyph name="T" format="1">
  <advance width="1122"/>
  <unicode hex="0054"/>
  <outline>
    <contour>
      <point x="478" y="0" type="line"/>
      <point x="478" y="1102" type="line"/>
      <point x="90" y="1102" type="line"/>
      <point x="90" y="1241" type="line"/>
      <point x="1032" y="1241" type="line"/>
      <point x="1032" y="1102" type="line"/>
      <point x="644" y="1102" type="line"/>
      <point x="644" y="0" type="line"/>
    </contour>
  </outline>
</glyph>
<glyph name="U" format="1">
  <advance width="1402"/>
  <unicode hex="0055"/>
  <outline>
    <contour>
      <point x="701" y="-34" type="curve" smooth="yes"/>
      <point x="384" y="-34"/>
      <point x="149" y="141.333"/>
      <point x="149" y="493" type="curve" smooth="yes"/>
      <point x="149" y="1241" type="line"/>
      <point x="311" y="1241" type="line"/>
      <point x="311" y="484" type="line" smooth="yes"/>
      <point x="311" y="214"/>
      <point x="469" y="100"/>
      <point x="701" y="100" type="curve" smooth="yes"/>
      <point x="933" y="100"/>
      <point x="1091" y="214"/>
      <point x="1091" y="484" type="curve" smooth="yes"/>
      <point x="1091" y="1241" type="line"/>
      <point x="1253" y="1241" type="line"/>
      <point x="1253" y="493" type="line" smooth="yes"/>
      <point x="1253" y="141.333"/>
      <point x="1018" y="-34"/>
    </contour>
  </outline>
</glyph>
<glyph name="V" format="1">
  <advance width="1264"/>
  <unicode hex="0056"/>
  <outline>
    <contour>
      <point x="644" y="-35" type="line"/>
      <point x="47" y="1241" type="line"/>
      <point x="220" y="1241" type="line"/>
      <point x="643" y="327" type="line"/>
      <point x="1039" y="1241" type="line"/>
      <point x="1217" y="1241" type="line"/>
    </contour>
  </outline>
</glyph>
<glyph name="W" format="1">
  <advance width="1757"/>
  <unicode hex="0057"/>
  <outline>
    <contour>
      <point x="547.5" y="-36" type="line"/>
      <point x="28.5" y="1241" type="line"/>
      <point x="198.5" y="1241" type="line"/>
      <point x="545.5" y="367" type="line"/>
      <point x="876.5" y="1240" type="line"/>
      <point x="1232.5" y="367" type="line"/>
      <point x="1552.5" y="1241" type="line"/>
      <point x="1728.5" y="1241" type="line"/>
      <point x="1241.5" y="-35" type="line"/>
      <point x="879.5" y="850" type="line"/>
    </contour>
  </outline>
</glyph>
<glyph name="X" format="1">
  <advance width="1519"/>
  <unicode hex="0058"/>
  <outline>
    <contour>
      <point x="740.5" y="746" type="line"/>
      <point x="1166.5" y="1241" type="line"/>
      <point x="1366.5" y="1241" type="line"/>
      <point x="844.5" y="631" type="line"/>
      <point x="1418.5" y="0" type="line"/>
      <point x="1223.5" y="0" type="line"/>
      <point x="752.5" y="523" type="line"/>
      <point x="305.5" y="0" type="line"/>
      <point x="100.5" y="0" type="line"/>
      <point x="648.5" y="638" type="line"/>
      <point x="104.5" y="1241" type="line"/>
      <point x="290.5" y="1241" type="line"/>
    </contour>
  </outline>
</glyph>
<glyph name="Y" format="1">
  <advance width="1259"/>
  <unicode hex="0059"/>
  <outline>
    <contour>
      <point x="553.5" y="0" type="line"/>
      <point x="553.5" y="476" type="line"/>
      <point x="119.5" y="1241" type="line"/>
      <point x="285.5" y="1241" type="line"/>
      <point x="638.5" y="616" type="line"/>
      <point x="966.5" y="1241" type="line"/>
      <point x="1139.5" y="1241" type="line"/>
      <point x="719.5" y="472" type="line"/>
      <point x="719.5" y="0" type="line"/>
    </contour>
  </outline>
</glyph>
<glyph name="bracketleft" format="1">
  <advance width="737"/>
  <unicode hex="005B"/>
  <outline>
    <contour>
      <point x="151" y="0" type="line"/>
      <point x="151" y="1241" type="line"/>
      <point x="595" y="1241" type="line"/>
      <point x="595" y="1112" type="line"/>
      <point x="316" y="1112" type="line"/>
      <point x="316" y="129" type="line"/>
      <point x="595" y="129" type="line"/>
      <point x="595" y="0" type="line"/>
    </contour>
  </outline>
</glyph>
<glyph name="backslash" format="1">
  <advance width="831"/>
  <unicode hex="005C"/>
  <outline>
    <contour>
      <point x="770" y="0" type="line"/>
      <point x="622" y="0" type="line"/>
      <point x="65" y="1241" type="line"/>
      <point x="214" y="1241" type="line"/>
    </contour>
  </outline>
</glyph>
<glyph name="bracketright" format="1">
  <advance width="736"/>
  <unicode hex="005D"/>
  <outline>
    <contour>
      <point x="143" y="0" type="line"/>
      <point x="143" y="129" type="line"/>
      <point x="421" y="129" type="line"/>
      <point x="421" y="1112" type="line"/>
      <point x="143" y="1112" type="line"/>
      <point x="143" y="1241" type="line"/>
      <point x="586" y="1241" type="line"/>
      <point x="586" y="0" type="line"/>
    </contour>
  </outline>
</glyph>
<glyph name="grave" format="1">
  <advance width="459"/>
  <unicode hex="0060"/>
  <outline>
    <contour>
      <point x="368" y="111" type="curve" smooth="yes"/>
      <point x="360" y="111"/>
      <point x="351" y="115"/>
      <point x="343" y="124" type="curve" smooth="yes"/>
      <point x="99" y="406" type="line" smooth="yes"/>
      <point x="83" y="425"/>
      <point x="76" y="444"/>
      <point x="76" y="461" type="curve" smooth="yes"/>
      <point x="76" y="498"/>
      <point x="110" y="528"/>
      <point x="147" y="528" type="curve" smooth="yes"/>
      <point x="173" y="528"/>
      <point x="201" y="512"/>
      <point x="220" y="475" type="curve" smooth="yes"/>
      <point x="385" y="153" type="line" smooth="yes"/>
      <point x="389" y="146"/>
      <point x="390" y="140"/>
      <point x="390" y="135" type="curve" smooth="yes"/>
      <point x="390" y="120"/>
      <point x="380" y="111"/>
    </contour>
  </outline>
</glyph>
<glyph name="a" format="1">
  <advance width="912"/>
  <unicode hex="0061"/>
  <outline>
    <contour>
      <point x="365" y="-18" type="curve" smooth="yes"/>
      <point x="230" y="-18"/>
      <point x="120" y="68"/>
      <point x="120" y="201" type="curve" smooth="yes"/>
      <point x="120" y="283"/>
      <point x="155" y="408"/>
      <point x="435" y="471" type="curve" smooth="yes"/>
      <point x="589" y="506" type="line"/>
      <point x="589" y="546" type="line" smooth="yes"/>
      <point x="589" y="708"/>
      <point x="498" y="728"/>
      <point x="415" y="728" type="curve" smooth="yes"/>
      <point x="327" y="728"/>
      <point x="224" y="680"/>
      <point x="169" y="652" type="curve"/>
      <point x="125" y="767" type="line"/>
      <point x="169" y="793"/>
      <point x="292" y="853"/>
      <point x="444" y="853" type="curve" smooth="yes"/>
      <point x="590" y="853"/>
      <point x="745" y="773"/>
      <point x="745" y="578" type="curve" smooth="yes"/>
      <point x="745" y="232" type="line" smooth="yes"/>
      <point x="745" y="154"/>
      <point x="795" y="120"/>
      <point x="846" y="120" type="curve" smooth="yes"/>
      <point x="861" y="120" type="line"/>
      <point x="824" y="-9" type="line"/>
      <point x="816" y="-9" type="line" smooth="yes"/>
      <point x="691" y="-9"/>
      <point x="630" y="77"/>
      <point x="616" y="102" type="curve"/>
      <point x="516" y="-8"/>
      <point x="419" y="-18"/>
    </contour>
    <contour>
      <point x="395" y="95" type="curve" smooth="yes"/>
      <point x="472" y="95"/>
      <point x="544" y="137"/>
      <point x="588" y="185" type="curve"/>
      <point x="588" y="415" type="line"/>
      <point x="582" y="413"/>
      <point x="434" y="376"/>
      <point x="430" y="374" type="curve" smooth="yes"/>
      <point x="299" y="338"/>
      <point x="277" y="272"/>
      <point x="277" y="215" type="curve" smooth="yes"/>
      <point x="277" y="148"/>
      <point x="321" y="95"/>
    </contour>
  </outline>
</glyph>
<glyph name="d" format="1">
  <advance width="1078"/>
  <unicode hex="0064"/>
  <outline>
    <contour>
      <point x="581" y="104" type="curve" smooth="yes"/>
      <point x="663" y="104"/>
      <point x="727" y="118"/>
      <point x="764" y="126" type="curve"/>
      <point x="764" y="662" type="line"/>
      <point x="753" y="667"/>
      <point x="656" y="729"/>
      <point x="536" y="729" type="curve" smooth="yes"/>
      <point x="341" y="729"/>
      <point x="258" y="577"/>
      <point x="258" y="413" type="curve" smooth="yes"/>
      <point x="258" y="208"/>
      <point x="395" y="104"/>
    </contour>
    <contour>
      <point x="574" y="-17" type="curve" smooth="yes"/>
      <point x="282" y="-17"/>
      <point x="102" y="156"/>
      <point x="102" y="424" type="curve" smooth="yes"/>
      <point x="102" y="664"/>
      <point x="263" y="853"/>
      <point x="495" y="853" type="curve" smooth="yes"/>
      <point x="651" y="853"/>
      <point x="749" y="787"/>
      <point x="764" y="779" type="curve"/>
      <point x="764" y="1224" type="line"/>
      <point x="922" y="1248" type="line"/>
      <point x="922" y="45" type="line"/>
      <point x="792" y="4"/>
      <point x="673" y="-17"/>
    </contour>
  </outline>
</glyph>
<glyph name="e" format="1">
  <advance width="964"/>
  <unicode hex="0065"/>
  <outline>
    <contour>
      <point x="263" y="493" type="curve"/>
      <point x="743" y="493" type="line"/>
      <point x="733" y="624"/>
      <point x="659" y="734"/>
      <point x="521" y="734" type="curve" smooth="yes"/>
      <point x="330" y="734"/>
      <point x="274" y="564"/>
    </contour>
    <contour>
      <point x="569" y="-17" type="curve" smooth="yes"/>
      <point x="313" y="-17"/>
      <point x="102" y="132"/>
      <point x="102" y="433" type="curve" smooth="yes"/>
      <point x="102" y="674"/>
      <point x="278" y="853"/>
      <point x="504" y="853" type="curve" smooth="yes"/>
      <point x="765" y="853"/>
      <point x="875" y="647"/>
      <point x="875" y="419" type="curve" smooth="yes"/>
      <point x="875" y="388" type="line"/>
      <point x="254" y="388" type="line"/>
      <point x="272" y="185"/>
      <point x="410" y="105"/>
      <point x="572" y="105" type="curve" smooth="yes"/>
      <point x="709" y="105"/>
      <point x="787" y="149"/>
      <point x="849" y="185" type="curve"/>
      <point x="849" y="57" type="line"/>
      <point x="777" y="15"/>
      <point x="694" y="-17"/>
    </contour>
  </outline>
</glyph>
<glyph name="f" format="1">
  <advance width="625"/>
  <unicode hex="0066"/>
  <outline>
    <contour>
      <point x="204" y="0" type="line"/>
      <point x="204" y="710" type="line"/>
      <point x="86" y="710" type="line"/>
      <point x="86" y="835" type="line"/>
      <point x="201" y="835" type="line"/>
      <point x="201" y="902" type="line" smooth="yes"/>
      <point x="201" y="1096"/>
      <point x="295" y="1221"/>
      <point x="482" y="1221" type="curve" smooth="yes"/>
      <point x="538" y="1221"/>
      <point x="596" y="1206"/>
      <point x="639" y="1193" type="curve"/>
      <point x="639" y="1062" type="line"/>
      <point x="602" y="1072"/>
      <point x="555" y="1087"/>
      <point x="509" y="1087" type="curve" smooth="yes"/>
      <point x="427" y="1087"/>
      <point x="361" y="1045"/>
      <point x="361" y="902" type="curve" smooth="yes"/>
      <point x="361" y="835" type="line"/>
      <point x="541" y="835" type="line"/>
      <point x="541" y="710" type="line"/>
      <point x="363" y="710" type="line"/>
      <point x="363" y="0" type="line"/>
    </contour>
  </outline>
</glyph>
<glyph name="g" format="1">
  <advance width="1070"/>
  <unicode hex="0067"/>
  <outline>
    <contour>
      <point x="569" y="105" type="curve" smooth="yes"/>
      <point x="652" y="105"/>
      <point x="729" y="126"/>
      <point x="769" y="137" type="curve"/>
      <point x="769" y="661" type="line"/>
      <point x="759" y="667"/>
      <point x="661" y="729"/>
      <point x="541" y="729" type="curve" smooth="yes"/>
      <point x="342" y="729"/>
      <point x="258" y="573"/>
      <point x="258" y="409" type="curve" smooth="yes"/>
      <point x="258" y="212"/>
      <point x="365" y="105"/>
    </contour>
    <contour>
      <point x="567" y="-393" type="curve" smooth="yes"/>
      <point x="439" y="-393"/>
      <point x="340" y="-355"/>
      <point x="299" y="-338" type="curve"/>
      <point x="299" y="-210" type="line"/>
      <point x="344" y="-230"/>
      <point x="435" y="-264"/>
      <point x="572" y="-264" type="curve" smooth="yes"/>
      <point x="693" y="-264"/>
      <point x="774" y="-189"/>
      <point x="774" y="-37" type="curve" smooth="yes"/>
      <point x="774" y="25" type="line"/>
      <point x="718" y="2"/>
      <point x="626" y="-16"/>
      <point x="565" y="-16" type="curve" smooth="yes"/>
      <point x="261" y="-16"/>
      <point x="102" y="170"/>
      <point x="102" y="419" type="curve" smooth="yes"/>
      <point x="102" y="659"/>
      <point x="264" y="853"/>
      <point x="501" y="853" type="curve" smooth="yes"/>
      <point x="654" y="853"/>
      <point x="759" y="783"/>
      <point x="769" y="773" type="curve"/>
      <point x="769" y="835" type="line"/>
      <point x="927" y="835" type="line"/>
      <point x="927" y="-16" type="line" smooth="yes"/>
      <point x="927" y="-281"/>
      <point x="773" y="-393"/>
    </contour>
  </outline>
</glyph>
<glyph name="h" format="1">
  <advance width="1177"/>
  <unicode hex="0068"/>
  <outline>
    <contour>
      <point x="170" y="0" type="line"/>
      <point x="170" y="1223" type="line"/>
      <point x="329" y="1249" type="line"/>
      <point x="329" y="713" type="line"/>
      <point x="350" y="731"/>
      <point x="466" y="853"/>
      <point x="681" y="853" type="curve" smooth="yes"/>
      <point x="845" y="853"/>
      <point x="990" y="742"/>
      <point x="990" y="580" type="curve" smooth="yes"/>
      <point x="990" y="0" type="line"/>
      <point x="830" y="0" type="line"/>
      <point x="830" y="559" type="line" smooth="yes"/>
      <point x="830" y="683"/>
      <point x="760" y="731"/>
      <point x="628" y="731" type="curve" smooth="yes"/>
      <point x="459" y="731"/>
      <point x="335" y="603"/>
      <point x="329" y="592" type="curve"/>
      <point x="329" y="0" type="line"/>
    </contour>
  </outline>
</glyph>
<glyph name="i" format="1">
  <advance width="516"/>
  <unicode hex="0069"/>
  <outline>
    <contour>
      <point x="182" y="0" type="line"/>
      <point x="182" y="835" type="line"/>
      <point x="340" y="835" type="line"/>
      <point x="340" y="0" type="line"/>
    </contour>
    <contour>
      <point x="262" y="1016" type="curve" smooth="yes"/>
      <point x="193" y="1016"/>
      <point x="156" y="1068"/>
      <point x="156" y="1120" type="curve" smooth="yes"/>
      <point x="156" y="1171"/>
      <point x="193" y="1224"/>
      <point x="262" y="1224" type="curve" smooth="yes"/>
      <point x="329" y="1224"/>
      <point x="366" y="1170"/>
      <point x="366" y="1120" type="curve" smooth="yes"/>
      <point x="366" y="1068"/>
      <point x="329" y="1016"/>
    </contour>
  </outline>
</glyph>
<glyph name="j" format="1">
  <advance width="539"/>
  <unicode hex="006A"/>
  <outline>
    <contour>
      <point x="46" y="-330" type="curve"/>
      <point x="17" y="-202" type="line"/>
      <point x="25" y="-201"/>
      <point x="39" y="-199"/>
      <point x="46" y="-199" type="curve" smooth="yes"/>
      <point x="137" y="-189"/>
      <point x="209" y="-159"/>
      <point x="209" y="-57" type="curve" smooth="yes"/>
      <point x="209" y="835" type="line"/>
      <point x="368" y="835" type="line"/>
      <point x="368" y="-67" type="line" smooth="yes"/>
      <point x="368" y="-175"/>
      <point x="327" y="-319"/>
    </contour>
    <contour>
      <point x="282" y="1042" type="curve" smooth="yes"/>
      <point x="214" y="1042"/>
      <point x="175" y="1094"/>
      <point x="175" y="1146" type="curve" smooth="yes"/>
      <point x="175" y="1198"/>
      <point x="214" y="1250"/>
      <point x="282" y="1250" type="curve" smooth="yes"/>
      <point x="349" y="1250"/>
      <point x="386" y="1197"/>
      <point x="386" y="1146" type="curve" smooth="yes"/>
      <point x="386" y="1094"/>
      <point x="349" y="1042"/>
    </contour>
  </outline>
</glyph>
<glyph name="k" format="1">
  <advance width="926"/>
  <unicode hex="006B"/>
  <outline>
    <contour>
      <point x="156" y="-1" type="line"/>
      <point x="156" y="1225" type="line"/>
      <point x="314" y="1248" type="line"/>
      <point x="314" y="479" type="line"/>
      <point x="676" y="834" type="line"/>
      <point x="872" y="834" type="line"/>
      <point x="473" y="447" type="line"/>
      <point x="930" y="0" type="line"/>
      <point x="728" y="0" type="line"/>
      <point x="314" y="404" type="line"/>
      <point x="314" y="-1" type="line"/>
    </contour>
  </outline>
</glyph>
<glyph name="l" format="1">
  <advance width="620"/>
  <unicode hex="006C"/>
  <outline>
    <contour>
      <point x="390" y="-18" type="curve" smooth="yes"/>
      <point x="260" y="-18"/>
      <point x="156" y="63"/>
      <point x="156" y="229" type="curve" smooth="yes"/>
      <point x="156" y="1223" type="line"/>
      <point x="314" y="1249" type="line"/>
      <point x="314" y="257" type="line" smooth="yes"/>
      <point x="314" y="146"/>
      <point x="347" y="108"/>
      <point x="420" y="108" type="curve" smooth="yes"/>
      <point x="477" y="108"/>
      <point x="538" y="125"/>
      <point x="563" y="134" type="curve"/>
      <point x="563" y="15" type="line"/>
      <point x="535" y="4"/>
      <point x="481" y="-18"/>
    </contour>
  </outline>
</glyph>
<glyph name="m" format="1">
  <advance width="1686"/>
  <unicode hex="006D"/>
  <outline>
    <contour>
      <point x="156" y="0" type="line"/>
      <point x="156" y="835" type="line"/>
      <point x="311" y="835" type="line"/>
      <point x="311" y="713" type="line"/>
      <point x="330" y="735"/>
      <point x="435" y="853"/>
      <point x="640" y="853" type="curve" smooth="yes"/>
      <point x="758" y="853"/>
      <point x="857" y="793"/>
      <point x="900" y="703" type="curve"/>
      <point x="926" y="728"/>
      <point x="1039" y="853"/>
      <point x="1242" y="853" type="curve" smooth="yes"/>
      <point x="1423" y="853"/>
      <point x="1549" y="748"/>
      <point x="1549" y="577" type="curve" smooth="yes"/>
      <point x="1549" y="0" type="line"/>
      <point x="1391" y="0" type="line"/>
      <point x="1391" y="557" type="line" smooth="yes"/>
      <point x="1391" y="682"/>
      <point x="1333" y="729"/>
      <point x="1204" y="729" type="curve" smooth="yes"/>
      <point x="1040" y="729"/>
      <point x="940" y="603"/>
      <point x="930" y="593" type="curve"/>
      <point x="930" y="0" type="line"/>
      <point x="773" y="0" type="line"/>
      <point x="773" y="559" type="line" smooth="yes"/>
      <point x="773" y="683"/>
      <point x="714" y="729"/>
      <point x="589" y="729" type="curve" smooth="yes"/>
      <point x="426" y="729"/>
      <point x="325" y="607"/>
      <point x="314" y="592" type="curve"/>
      <point x="314" y="0" type="line"/>
    </contour>
  </outline>
</glyph>
<glyph name="n" format="1">
  <advance width="1113"/>
  <unicode hex="006E"/>
  <outline>
    <contour>
      <point x="156" y="0" type="line"/>
      <point x="156" y="835" type="line"/>
      <point x="313" y="835" type="line"/>
      <point x="313" y="713" type="line"/>
      <point x="334" y="731"/>
      <point x="449" y="853"/>
      <point x="664" y="853" type="curve" smooth="yes"/>
      <point x="828" y="853"/>
      <point x="976" y="742"/>
      <point x="976" y="580" type="curve" smooth="yes"/>
      <point x="976" y="0" type="line"/>
      <point x="816" y="0" type="line"/>
      <point x="816" y="559" type="line" smooth="yes"/>
      <point x="816" y="683"/>
      <point x="744" y="731"/>
      <point x="612" y="731" type="curve" smooth="yes"/>
      <point x="442" y="731"/>
      <point x="322" y="603"/>
      <point x="316" y="592" type="curve"/>
      <point x="316" y="0" type="line"/>
    </contour>
  </outline>
</glyph>
<glyph name="o" format="1">
  <advance width="1114"/>
  <unicode hex="006F"/>
  <outline>
    <contour>
      <point x="557" y="106" type="curve" smooth="yes"/>
      <point x="759" y="106"/>
      <point x="863" y="259"/>
      <point x="863" y="415" type="curve" smooth="yes"/>
      <point x="863" y="572"/>
      <point x="757" y="729"/>
      <point x="557" y="729" type="curve" smooth="yes"/>
      <point x="358" y="729"/>
      <point x="252" y="572"/>
      <point x="252" y="416" type="curve" smooth="yes"/>
      <point x="252" y="248"/>
      <point x="355" y="106"/>
    </contour>
    <contour>
      <point x="556" y="-18" type="curve" smooth="yes"/>
      <point x="316" y="-18"/>
      <point x="102" y="143"/>
      <point x="102" y="415" type="curve" smooth="yes"/>
      <point x="102" y="690"/>
      <point x="316" y="853"/>
      <point x="558" y="853" type="curve" smooth="yes"/>
      <point x="787" y="853"/>
      <point x="1012" y="690"/>
      <point x="1012" y="415" type="curve" smooth="yes"/>
      <point x="1012" y="144"/>
      <point x="798" y="-18"/>
    </contour>
  </outline>
</glyph>
<glyph name="q" format="1">
  <advance width="1078"/>
  <unicode hex="0071"/>
  <outline>
    <contour>
      <point x="580" y="106" type="curve" smooth="yes"/>
      <point x="691" y="106"/>
      <point x="763" y="129"/>
      <point x="763" y="129" type="curve"/>
      <point x="763" y="667" type="line"/>
      <point x="735" y="689"/>
      <point x="640" y="732"/>
      <point x="538" y="732" type="curve" smooth="yes"/>
      <point x="392" y="732"/>
      <point x="258" y="628"/>
      <point x="258" y="429" type="curve" smooth="yes"/>
      <point x="258" y="218"/>
      <point x="372" y="106"/>
    </contour>
    <contour>
      <point x="763" y="-403" type="line"/>
      <point x="763" y="10" type="line"/>
      <point x="750" y="5"/>
      <point x="677" y="-18"/>
      <point x="570" y="-18" type="curve" smooth="yes"/>
      <point x="282" y="-18"/>
      <point x="102" y="157"/>
      <point x="102" y="422" type="curve" smooth="yes"/>
      <point x="102" y="676"/>
      <point x="267" y="853"/>
      <point x="515" y="853" type="curve" smooth="yes"/>
      <point x="596" y="853"/>
      <point x="689" y="832"/>
      <point x="763" y="779" type="curve"/>
      <point x="763" y="835" type="line"/>
      <point x="921" y="835" type="line"/>
      <point x="921" y="-403" type="line"/>
    </contour>
  </outline>
</glyph>
<glyph name="r" format="1">
  <advance width="742"/>
  <unicode hex="0072"/>
  <outline>
    <contour>
      <point x="156" y="0" type="line"/>
      <point x="156" y="835" type="line"/>
      <point x="314" y="835" type="line"/>
      <point x="314" y="585" type="line"/>
      <point x="322" y="615"/>
      <point x="437" y="840"/>
      <point x="575" y="840" type="curve" smooth="yes"/>
      <point x="630" y="840"/>
      <point x="683" y="810"/>
      <point x="746" y="744" type="curve"/>
      <point x="691" y="622" type="line"/>
      <point x="650" y="660"/>
      <point x="603" y="685"/>
      <point x="551" y="685" type="curve" smooth="yes"/>
      <point x="431" y="685"/>
      <point x="314" y="539"/>
      <point x="314" y="403" type="curve" smooth="yes"/>
      <point x="314" y="0" type="line"/>
    </contour>
  </outline>
</glyph>
<glyph name="s" format="1">
  <advance width="817"/>
  <unicode hex="0073"/>
  <outline>
    <contour>
      <point x="465" y="-18" type="curve" smooth="yes"/>
      <point x="281" y="-18"/>
      <point x="154" y="52"/>
      <point x="114" y="78" type="curve"/>
      <point x="131" y="200" type="line"/>
      <point x="215" y="147"/>
      <point x="356" y="104"/>
      <point x="459" y="104" type="curve" smooth="yes"/>
      <point x="533" y="104"/>
      <point x="582" y="143"/>
      <point x="582" y="202" type="curve" smooth="yes"/>
      <point x="582" y="245"/>
      <point x="560" y="275"/>
      <point x="498" y="308" type="curve" smooth="yes"/>
      <point x="285" y="423" type="line" smooth="yes"/>
      <point x="169" y="485"/>
      <point x="138" y="562"/>
      <point x="138" y="634" type="curve" smooth="yes"/>
      <point x="138" y="744"/>
      <point x="231" y="853"/>
      <point x="420" y="853" type="curve" smooth="yes"/>
      <point x="553" y="853"/>
      <point x="654" y="808"/>
      <point x="696" y="788" type="curve"/>
      <point x="664" y="677" type="line"/>
      <point x="615" y="697"/>
      <point x="529" y="733"/>
      <point x="430" y="733" type="curve" smooth="yes"/>
      <point x="339" y="733"/>
      <point x="287" y="691"/>
      <point x="287" y="639" type="curve" smooth="yes"/>
      <point x="287" y="589"/>
      <point x="310" y="562"/>
      <point x="367" y="532" type="curve" smooth="yes"/>
      <point x="587" y="413" type="line" smooth="yes"/>
      <point x="697" y="353"/>
      <point x="730" y="275"/>
      <point x="730" y="206" type="curve" smooth="yes"/>
      <point x="730" y="96"/>
      <point x="650" y="-18"/>
    </contour>
  </outline>
</glyph>
<glyph name="t" format="1">
  <advance width="730"/>
  <unicode hex="0074"/>
  <outline>
    <contour>
      <point x="449" y="-18" type="curve" smooth="yes"/>
      <point x="313" y="-18"/>
      <point x="193" y="58"/>
      <point x="193" y="197" type="curve" smooth="yes"/>
      <point x="193" y="712" type="line"/>
      <point x="110" y="712" type="line" smooth="yes"/>
      <point x="93" y="712"/>
      <point x="85" y="722"/>
      <point x="85" y="732" type="curve" smooth="yes"/>
      <point x="85" y="738"/>
      <point x="88" y="745"/>
      <point x="93" y="750" type="curve" smooth="yes"/>
      <point x="350" y="1026" type="line"/>
      <point x="350" y="835" type="line"/>
      <point x="627" y="835" type="line"/>
      <point x="627" y="712" type="line"/>
      <point x="350" y="712" type="line"/>
      <point x="350" y="226" type="line" smooth="yes"/>
      <point x="350" y="128"/>
      <point x="407" y="107"/>
      <point x="475" y="107" type="curve" smooth="yes"/>
      <point x="565" y="107"/>
      <point x="640" y="146"/>
      <point x="672" y="160" type="curve"/>
      <point x="672" y="43" type="line"/>
      <point x="645" y="26"/>
      <point x="575" y="-18"/>
    </contour>
  </outline>
</glyph>
<glyph name="u" format="1">
  <advance width="1115"/>
  <unicode hex="0075"/>
  <outline>
    <contour>
      <point x="461" y="-18" type="curve" smooth="yes"/>
      <point x="283" y="-18"/>
      <point x="141" y="95"/>
      <point x="141" y="254" type="curve" smooth="yes"/>
      <point x="141" y="835" type="line"/>
      <point x="301" y="835" type="line"/>
      <point x="301" y="276" type="line" smooth="yes"/>
      <point x="301" y="152"/>
      <point x="375" y="104"/>
      <point x="507" y="104" type="curve" smooth="yes"/>
      <point x="677" y="104"/>
      <point x="793" y="231"/>
      <point x="799" y="242" type="curve"/>
      <point x="799" y="835" type="line"/>
      <point x="959" y="835" type="line"/>
      <point x="959" y="0" type="line"/>
      <point x="802" y="0" type="line"/>
      <point x="802" y="123" type="line"/>
      <point x="781" y="105"/>
      <point x="673" y="-18"/>
    </contour>
  </outline>
</glyph>
<glyph name="w" format="1">
  <advance width="1280"/>
  <unicode hex="0077"/>
  <outline>
    <contour>
      <point x="376" y="-35" type="line"/>
      <point x="38" y="835" type="line"/>
      <point x="190" y="835" type="line"/>
      <point x="392" y="295" type="line"/>
      <point x="643" y="858" type="line"/>
      <point x="898" y="290" type="line"/>
      <point x="1092" y="835" type="line"/>
      <point x="1242" y="835" type="line"/>
      <point x="910" y="-35" type="line"/>
      <point x="645" y="581" type="line"/>
    </contour>
  </outline>
</glyph>
<glyph name="x" format="1">
  <advance width="1011"/>
  <unicode hex="0078"/>
  <outline>
    <contour>
      <point x="48" y="0" type="line"/>
      <point x="410" y="430" type="line"/>
      <point x="50" y="835" type="line"/>
      <point x="225" y="835" type="line"/>
      <point x="501" y="513" type="line"/>
      <point x="763" y="835" type="line"/>
      <point x="953" y="835" type="line"/>
      <point x="600" y="419" type="line"/>
      <point x="963" y="0" type="line"/>
      <point x="791" y="0" type="line"/>
      <point x="507" y="337" type="line"/>
      <point x="235" y="0" type="line"/>
    </contour>
  </outline>
</glyph>
<glyph name="z" format="1">
  <advance width="872"/>
  <unicode hex="007A"/>
  <outline>
    <contour>
      <point x="89" y="0" type="line"/>
      <point x="566" y="714" type="line"/>
      <point x="129" y="714" type="line"/>
      <point x="129" y="835" type="line"/>
      <point x="800" y="835" type="line"/>
      <point x="337" y="122" type="line"/>
      <point x="771" y="122" type="line"/>
      <point x="771" y="0" type="line"/>
    </contour>
  </outline>
</glyph>
<glyph name="braceleft" format="1">
  <advance width="605"/>
  <unicode hex="007B"/>
  <outline>
    <contour>
      <point x="448" y="-46" type="line" smooth="yes"/>
      <point x="277" y="-46"/>
      <point x="203" y="38"/>
      <point x="203" y="238" type="curve" smooth="yes"/>
      <point x="203" y="365" type="line" smooth="yes"/>
      <point x="203" y="527"/>
      <point x="152" y="571"/>
      <point x="62" y="572" type="curve"/>
      <point x="62" y="656" type="line"/>
      <point x="151" y="657"/>
      <point x="203" y="699"/>
      <point x="203" y="862" type="curve" smooth="yes"/>
      <point x="203" y="990" type="line" smooth="yes"/>
      <point x="203" y="1190"/>
      <point x="277" y="1274"/>
      <point x="448" y="1274" type="curve" smooth="yes"/>
      <point x="534" y="1274" type="line"/>
      <point x="534" y="1188" type="line"/>
      <point x="465" y="1188" type="line" smooth="yes"/>
      <point x="363" y="1188"/>
      <point x="323" y="1133"/>
      <point x="323" y="971" type="curve" smooth="yes"/>
      <point x="323" y="862" type="line" smooth="yes"/>
      <point x="323" y="687"/>
      <point x="271" y="639"/>
      <point x="196" y="613" type="curve"/>
      <point x="271" y="582"/>
      <point x="323" y="540"/>
      <point x="323" y="365" type="curve" smooth="yes"/>
      <point x="323" y="256" type="line" smooth="yes"/>
      <point x="323" y="94"/>
      <point x="363" y="40"/>
      <point x="465" y="40" type="curve" smooth="yes"/>
      <point x="534" y="40" type="line"/>
      <point x="534" y="-46" type="line"/>
    </contour>
  </outline>
</glyph>
<glyph name="bar" format="1">
  <advance width="465"/>
  <unicode hex="007C"/>
  <outline>
    <contour>
      <point x="153" y="-134" type="curve"/>
      <point x="153" y="1248" type="line"/>
      <point x="311" y="1248" type="line"/>
      <point x="311" y="-133" type="line" smooth="yes"/>
      <point x="311" y="-134"/>
      <point x="153" y="-134"/>
    </contour>
  </outline>
</glyph>
<glyph name="asciitilde" format="1">
  <advance width="1016"/>
  <unicode hex="007E"/>
  <outline>
    <contour>
      <point x="704" y="614" type="curve" smooth="yes"/>
      <point x="593" y="614"/>
      <point x="405" y="732"/>
      <point x="329" y="732" type="curve" smooth="yes"/>
      <point x="276" y="732"/>
      <point x="244" y="701"/>
      <point x="241" y="628" type="curve"/>
      <point x="137" y="628" type="line"/>
      <point x="138" y="791"/>
      <point x="223" y="850"/>
      <point x="319" y="850" type="curve" smooth="yes"/>
      <point x="451" y="850"/>
      <point x="611" y="735"/>
      <point x="699" y="735" type="curve" smooth="yes"/>
      <point x="745" y="735"/>
      <point x="774" y="773"/>
      <point x="777" y="836" type="curve"/>
      <point x="881" y="836" type="line"/>
      <point x="880" y="671"/>
      <point x="808" y="614"/>
    </contour>
  </outline>
</glyph>
<glyph name="cent" format="1">
  <advance width="875"/>
  <unicode hex="00A2"/>
  <outline>
    <contour>
      <point x="580.155" y="-17.0505" type="curve"/>
      <point x="580.103" y="-87.367"/>
      <point x="580.052" y="-157.684"/>
      <point x="580" y="-228" type="curve"/>
      <point x="506" y="-228" type="line"/>
      <point x="506" y="-16.6092" type="line"/>
      <point x="243.004" y="0.65251"/>
      <point x="79" y="176.935"/>
      <point x="79" y="419" type="curve" smooth="yes"/>
      <point x="79" y="665.399"/>
      <point x="255.488" y="835.773"/>
      <point x="506" y="851.768" type="curve"/>
      <point x="506" y="1136" type="line"/>
      <point x="581" y="1136" type="line"/>
      <point x="580.931" y="1041.31"/>
      <point x="580.861" y="946.617"/>
      <point x="580.792" y="851.925" type="curve"/>
      <point x="701.768" y="844.603"/>
      <point x="776.565" y="802.044"/>
      <point x="793" y="792" type="curve"/>
      <point x="793" y="660" type="line"/>
      <point x="780" y="669"/>
      <point x="697" y="725"/>
      <point x="550" y="725" type="curve" smooth="yes"/>
      <point x="340" y="725"/>
      <point x="231" y="580"/>
      <point x="231" y="420" type="curve" smooth="yes"/>
      <point x="231" y="251"/>
      <point x="332" y="109"/>
      <point x="548" y="109" type="curve" smooth="yes"/>
      <point x="672" y="109"/>
      <point x="757" y="157"/>
      <point x="793" y="177" type="curve"/>
      <point x="793" y="46" type="line"/>
      <point x="760.124" y="27.7355"/>
      <point x="686.383" y="-10.5445"/>
    </contour>
  </outline>
</glyph>
<glyph name="sterling" format="1">
  <advance width="1001"/>
  <unicode hex="00A3"/>
  <outline>
    <contour>
      <point x="628" y="-24" type="curve" smooth="yes"/>
      <point x="514" y="-24"/>
      <point x="393" y="28"/>
      <point x="307" y="112" type="curve"/>
      <point x="287" y="75"/>
      <point x="264" y="38"/>
      <point x="236" y="0" type="curve"/>
      <point x="67" y="0" type="line"/>
      <point x="194" y="169"/>
      <point x="246" y="307"/>
      <point x="246" y="425" type="curve" smooth="yes"/>
      <point x="246" y="469"/>
      <point x="239" y="514"/>
      <point x="228" y="560" type="curve"/>
      <point x="84" y="560" type="line"/>
      <point x="84" y="677" type="line"/>
      <point x="192" y="677" type="line"/>
      <point x="162" y="769"/>
      <point x="130" y="855"/>
      <point x="130" y="921" type="curve" smooth="yes"/>
      <point x="130" y="1165"/>
      <point x="326" y="1274"/>
      <point x="514" y="1274" type="curve" smooth="yes"/>
      <point x="658" y="1274"/>
      <point x="778" y="1198"/>
      <point x="829" y="1142" type="curve"/>
      <point x="753" y="1034" type="line"/>
      <point x="724" y="1058"/>
      <point x="648" y="1138"/>
      <point x="525" y="1138" type="curve" smooth="yes"/>
      <point x="413" y="1138"/>
      <point x="291" y="1065"/>
      <point x="291" y="917" type="curve" smooth="yes"/>
      <point x="291" y="852"/>
      <point x="322" y="767"/>
      <point x="351" y="677" type="curve"/>
      <point x="631" y="677" type="line"/>
      <point x="631" y="560" type="line"/>
      <point x="388" y="560" type="line"/>
      <point x="398" y="514"/>
      <point x="405" y="469"/>
      <point x="405" y="425" type="curve" smooth="yes"/>
      <point x="405" y="364"/>
      <point x="393" y="299"/>
      <point x="366" y="230" type="curve"/>
      <point x="419" y="160"/>
      <point x="517" y="108"/>
      <point x="617" y="108" type="curve" smooth="yes"/>
      <point x="718" y="108"/>
      <point x="787" y="169"/>
      <point x="787" y="276" type="curve"/>
      <point x="932" y="276" type="line"/>
      <point x="932" y="71"/>
      <point x="793" y="-24"/>
    </contour>
  </outline>
</glyph>
<glyph name="yen" format="1">
  <advance width="1264"/>
  <unicode hex="00A5"/>
  <outline>
    <contour>
      <point x="557" y="0" type="line"/>
      <point x="557" y="420" type="line"/>
      <point x="279" y="420" type="line"/>
      <point x="279" y="528" type="line"/>
      <point x="526" y="528" type="line"/>
      <point x="459" y="647" type="line"/>
      <point x="245" y="647" type="line"/>
      <point x="245" y="756" type="line"/>
      <point x="397" y="756" type="line"/>
      <point x="122" y="1241" type="line"/>
      <point x="288" y="1241" type="line"/>
      <point x="641" y="616" type="line"/>
      <point x="970" y="1241" type="line"/>
      <point x="1142" y="1241" type="line"/>
      <point x="877" y="756" type="line"/>
      <point x="1024" y="756" type="line"/>
      <point x="1024" y="647" type="line"/>
      <point x="818" y="647" type="line"/>
      <point x="753" y="528" type="line"/>
      <point x="991" y="528" type="line"/>
      <point x="991" y="420" type="line"/>
      <point x="722" y="420" type="line"/>
      <point x="722" y="0" type="line"/>
    </contour>
  </outline>
</glyph>
<glyph name="brokenbar" format="1">
  <advance width="465"/>
  <unicode hex="00A6"/>
  <outline>
    <contour>
      <point x="153" y="689" type="curve"/>
      <point x="153" y="1248" type="line"/>
      <point x="311" y="1248" type="line"/>
      <point x="311" y="690" type="line" smooth="yes"/>
      <point x="311" y="689"/>
      <point x="153" y="689"/>
    </contour>
    <contour>
      <point x="153" y="-133" type="line"/>
      <point x="153" y="418" type="line"/>
      <point x="311" y="418" type="line"/>
      <point x="311" y="-133" type="line" smooth="yes"/>
      <point x="270" y="-133" type="line" smooth="yes"/>
    </contour>
  </outline>
</glyph>
<glyph name="section" format="1">
  <advance width="877"/>
  <unicode hex="00A7"/>
  <outline>
    <contour>
      <point x="500" y="504" type="line"/>
      <point x="571" y="509"/>
      <point x="615" y="555"/>
      <point x="615" y="612" type="curve" smooth="yes"/>
      <point x="615" y="655"/>
      <point x="594" y="687"/>
      <point x="532" y="719" type="curve"/>
      <point x="411" y="786" type="line"/>
      <point x="328" y="781"/>
      <point x="280" y="739"/>
      <point x="280" y="688" type="curve" smooth="yes"/>
      <point x="280" y="639"/>
      <point x="302" y="613"/>
      <point x="360" y="582" type="curve"/>
    </contour>
    <contour>
      <point x="479" y="25" type="curve" smooth="yes"/>
      <point x="296" y="25"/>
      <point x="167" y="95"/>
      <point x="127" y="121" type="curve"/>
      <point x="144" y="241" type="line"/>
      <point x="219" y="194"/>
      <point x="377" y="146"/>
      <point x="470" y="146" type="curve" smooth="yes"/>
      <point x="546" y="146"/>
      <point x="595" y="185"/>
      <point x="595" y="245" type="curve" smooth="yes"/>
      <point x="595" y="289"/>
      <point x="573" y="319"/>
      <point x="511" y="352" type="curve" smooth="yes"/>
      <point x="294" y="471" type="line" smooth="yes"/>
      <point x="179" y="533"/>
      <point x="148" y="606"/>
      <point x="148" y="676" type="curve" smooth="yes"/>
      <point x="148" y="751"/>
      <point x="194" y="818"/>
      <point x="290" y="853" type="curve"/>
      <point x="183" y="914"/>
      <point x="151" y="985"/>
      <point x="151" y="1054" type="curve" smooth="yes"/>
      <point x="151" y="1164"/>
      <point x="243" y="1273"/>
      <point x="433" y="1273" type="curve" smooth="yes"/>
      <point x="566" y="1273"/>
      <point x="666" y="1228"/>
      <point x="708" y="1208" type="curve"/>
      <point x="677" y="1097" type="line"/>
      <point x="631" y="1115"/>
      <point x="543" y="1155"/>
      <point x="443" y="1155" type="curve" smooth="yes"/>
      <point x="352" y="1155"/>
      <point x="298" y="1114"/>
      <point x="298" y="1059" type="curve" smooth="yes"/>
      <point x="298" y="1010"/>
      <point x="321" y="983"/>
      <point x="378" y="953" type="curve" smooth="yes"/>
      <point x="606" y="829" type="line" smooth="yes"/>
      <point x="715" y="770"/>
      <point x="746" y="696"/>
      <point x="746" y="629" type="curve" smooth="yes"/>
      <point x="746" y="551"/>
      <point x="706" y="476"/>
      <point x="615" y="440" type="curve"/>
      <point x="713" y="382"/>
      <point x="743" y="312"/>
      <point x="743" y="248" type="curve" smooth="yes"/>
      <point x="743" y="138"/>
      <point x="665" y="25"/>
    </contour>
  </outline>
</glyph>
<glyph name="copyright" format="1">
  <advance width="1749"/>
  <unicode hex="00A9"/>
  <outline>
    <contour>
      <point x="885" y="138" type="curve" smooth="yes"/>
      <point x="609" y="138"/>
      <point x="387" y="332"/>
      <point x="387" y="623" type="curve" smooth="yes"/>
      <point x="387" y="919"/>
      <point x="604" y="1110"/>
      <point x="897" y="1110" type="curve" smooth="yes"/>
      <point x="1011" y="1110"/>
      <point x="1124" y="1071"/>
      <point x="1205" y="1023" type="curve"/>
      <point x="1205" y="903" type="line"/>
      <point x="1110" y="966"/>
      <point x="1004" y="998"/>
      <point x="903" y="998" type="curve" smooth="yes"/>
      <point x="701" y="998"/>
      <point x="525" y="868"/>
      <point x="525" y="620" type="curve" smooth="yes"/>
      <point x="525" y="371"/>
      <point x="695" y="250"/>
      <point x="893" y="250" type="curve" smooth="yes"/>
      <point x="997" y="250"/>
      <point x="1108" y="283"/>
      <point x="1205" y="348" type="curve"/>
      <point x="1205" y="224" type="line"/>
      <point x="1118" y="176"/>
      <point x="1001" y="138"/>
    </contour>
    <contour>
      <point x="875" y="-99" type="curve" smooth="yes"/>
      <point x="504" y="-99"/>
      <point x="142" y="139"/>
      <point x="142" y="619" type="curve" smooth="yes"/>
      <point x="142" y="1102"/>
      <point x="504" y="1339"/>
      <point x="874" y="1339" type="curve" smooth="yes"/>
      <point x="1245" y="1339"/>
      <point x="1608" y="1101"/>
      <point x="1608" y="623" type="curve" smooth="yes"/>
      <point x="1608" y="139"/>
      <point x="1245" y="-99"/>
    </contour>
    <contour>
      <point x="874" y="1" type="curve" smooth="yes"/>
      <point x="1173" y="1"/>
      <point x="1492" y="195"/>
      <point x="1492" y="619" type="curve" smooth="yes"/>
      <point x="1492" y="1045"/>
      <point x="1197" y="1239"/>
      <point x="874" y="1239" type="curve" smooth="yes"/>
      <point x="549" y="1239"/>
      <point x="259" y="1039"/>
      <point x="259" y="619" type="curve" smooth="yes"/>
      <point x="259" y="195"/>
      <point x="561" y="1"/>
    </contour>
  </outline>
</glyph>
<glyph name="guillemotleft" format="1">
  <advance width="819"/>
  <unicode hex="00AB"/>
  <outline>
    <contour>
      <point x="413" y="189" type="curve" smooth="yes"/>
      <point x="407" y="189"/>
      <point x="399" y="190"/>
      <point x="390" y="194" type="curve"/>
      <point x="125" y="414" type="line"/>
      <point x="87" y="439"/>
      <point x="69" y="471"/>
      <point x="69" y="503" type="curve" smooth="yes"/>
      <point x="69" y="535"/>
      <point x="88" y="568"/>
      <point x="125" y="592" type="curve"/>
      <point x="390" y="813" type="line"/>
      <point x="399" y="817"/>
      <point x="407" y="818"/>
      <point x="413" y="818" type="curve" smooth="yes"/>
      <point x="430" y="818"/>
      <point x="442" y="806"/>
      <point x="442" y="792" type="curve" smooth="yes"/>
      <point x="442" y="782"/>
      <point x="436" y="773"/>
      <point x="426" y="762" type="curve"/>
      <point x="247" y="503" type="line"/>
      <point x="426" y="245" type="line"/>
      <point x="436" y="233"/>
      <point x="442" y="224"/>
      <point x="442" y="215" type="curve" smooth="yes"/>
      <point x="442" y="201"/>
      <point x="430" y="189"/>
    </contour>
    <contour>
      <point x="721" y="189" type="curve" smooth="yes"/>
      <point x="715" y="189"/>
      <point x="707" y="190"/>
      <point x="698" y="194" type="curve"/>
      <point x="433" y="414" type="line"/>
      <point x="395" y="439"/>
      <point x="376" y="471"/>
      <point x="376" y="503" type="curve" smooth="yes"/>
      <point x="376" y="535"/>
      <point x="396" y="568"/>
      <point x="433" y="592" type="curve"/>
      <point x="698" y="813" type="line"/>
      <point x="707" y="817"/>
      <point x="715" y="818"/>
      <point x="721" y="818" type="curve" smooth="yes"/>
      <point x="738" y="818"/>
      <point x="750" y="806"/>
      <point x="750" y="792" type="curve" smooth="yes"/>
      <point x="750" y="782"/>
      <point x="743" y="773"/>
      <point x="733" y="762" type="curve"/>
      <point x="555" y="503" type="line"/>
      <point x="733" y="245" type="line"/>
      <point x="743" y="233"/>
      <point x="750" y="224"/>
      <point x="750" y="215" type="curve" smooth="yes"/>
      <point x="750" y="201"/>
      <point x="738" y="189"/>
    </contour>
  </outline>
</glyph>
<glyph name="logicalnot" format="1">
  <advance width="932"/>
  <unicode hex="00AC"/>
  <outline>
    <contour>
      <point x="666" y="425" type="line"/>
      <point x="666" y="710" type="line"/>
      <point x="149" y="710" type="line"/>
      <point x="149" y="824" type="line"/>
      <point x="780" y="824" type="line"/>
      <point x="780" y="425" type="line"/>
    </contour>
  </outline>
</glyph>
<glyph name="registered" format="1">
  <advance width="1757"/>
  <unicode hex="00AE"/>
  <outline>
    <contour>
      <point x="879" y="-99" type="curve" smooth="yes"/>
      <point x="508" y="-99"/>
      <point x="142" y="139"/>
      <point x="142" y="619" type="curve" smooth="yes"/>
      <point x="142" y="1102"/>
      <point x="508" y="1339"/>
      <point x="878" y="1339" type="curve" smooth="yes"/>
      <point x="1250" y="1339"/>
      <point x="1616" y="1101"/>
      <point x="1616" y="623" type="curve" smooth="yes"/>
      <point x="1616" y="139"/>
      <point x="1250" y="-99"/>
    </contour>
    <contour>
      <point x="878" y="-1" type="curve" smooth="yes"/>
      <point x="1177" y="-1"/>
      <point x="1496" y="195"/>
      <point x="1496" y="619" type="curve" smooth="yes"/>
      <point x="1496" y="1045"/>
      <point x="1202" y="1241"/>
      <point x="878" y="1241" type="curve" smooth="yes"/>
      <point x="553" y="1241"/>
      <point x="263" y="1039"/>
      <point x="263" y="619" type="curve" smooth="yes"/>
      <point x="263" y="195"/>
      <point x="565" y="-1"/>
    </contour>
    <contour>
      <point x="704" y="663" type="line"/>
      <point x="777" y="663" type="line" smooth="yes"/>
      <point x="933" y="663"/>
      <point x="1049" y="691"/>
      <point x="1049" y="824" type="curve" smooth="yes"/>
      <point x="1049" y="931"/>
      <point x="980" y="980"/>
      <point x="803" y="980" type="curve" smooth="yes"/>
      <point x="704" y="980" type="line"/>
    </contour>
    <contour>
      <point x="579" y="161" type="line"/>
      <point x="579" y="1076" type="line"/>
      <point x="807" y="1076" type="line" smooth="yes"/>
      <point x="1028" y="1076"/>
      <point x="1174" y="1001"/>
      <point x="1174" y="828" type="curve" smooth="yes"/>
      <point x="1174" y="659"/>
      <point x="1048" y="593"/>
      <point x="867" y="581" type="curve"/>
      <point x="1226" y="161" type="line"/>
      <point x="1069" y="161" type="line"/>
      <point x="730" y="573" type="line"/>
      <point x="704" y="573" type="line"/>
      <point x="704" y="161" type="line"/>
    </contour>
  </outline>
</glyph>
<glyph name="degree" format="1">
  <advance width="735"/>
  <unicode hex="00B0"/>
  <outline>
    <contour>
      <point x="366" y="1095" type="curve" smooth="yes"/>
      <point x="454" y="1095"/>
      <point x="498" y="1161"/>
      <point x="498" y="1228" type="curve" smooth="yes"/>
      <point x="498" y="1296"/>
      <point x="452" y="1364"/>
      <point x="366" y="1364" type="curve" smooth="yes"/>
      <point x="280" y="1364"/>
      <point x="234" y="1296"/>
      <point x="234" y="1229" type="curve" smooth="yes"/>
      <point x="234" y="1156"/>
      <point x="278" y="1095"/>
    </contour>
    <contour>
      <point x="366" y="1017" type="curve" smooth="yes"/>
      <point x="251" y="1017"/>
      <point x="145" y="1093"/>
      <point x="145" y="1229" type="curve" smooth="yes"/>
      <point x="145" y="1365"/>
      <point x="251" y="1444"/>
      <point x="367" y="1444" type="curve" smooth="yes"/>
      <point x="476" y="1444"/>
      <point x="589" y="1365"/>
      <point x="589" y="1229" type="curve" smooth="yes"/>
      <point x="589" y="1094"/>
      <point x="482" y="1017"/>
    </contour>
  </outline>
</glyph>
<glyph name="plusminus" format="1">
  <advance width="947"/>
  <unicode hex="00B1"/>
  <outline>
    <contour>
      <point x="151" y="127" type="line"/>
      <point x="151" y="235" type="line"/>
      <point x="795" y="235" type="line"/>
      <point x="795" y="127" type="line"/>
    </contour>
    <contour>
      <point x="418" y="380" type="line"/>
      <point x="418" y="647" type="line"/>
      <point x="151" y="647" type="line"/>
      <point x="151" y="756" type="line"/>
      <point x="418" y="756" type="line"/>
      <point x="418" y="1024" type="line"/>
      <point x="527" y="1024" type="line"/>
      <point x="527" y="756" type="line"/>
      <point x="795" y="756" type="line"/>
      <point x="795" y="647" type="line"/>
      <point x="527" y="647" type="line"/>
      <point x="527" y="380" type="line"/>
    </contour>
  </outline>
</glyph>
<glyph name="acute" format="1">
  <advance width="460"/>
  <unicode hex="00B4"/>
  <outline>
    <contour>
      <point x="94" y="111" type="curve" smooth="yes"/>
      <point x="82" y="111"/>
      <point x="72" y="120"/>
      <point x="72" y="135" type="curve" smooth="yes"/>
      <point x="72" y="140"/>
      <point x="74" y="146"/>
      <point x="77" y="153" type="curve" smooth="yes"/>
      <point x="242" y="475" type="line" smooth="yes"/>
      <point x="261" y="512"/>
      <point x="289" y="528"/>
      <point x="315" y="528" type="curve" smooth="yes"/>
      <point x="352" y="528"/>
      <point x="387" y="498"/>
      <point x="387" y="461" type="curve" smooth="yes"/>
      <point x="387" y="444"/>
      <point x="380" y="425"/>
      <point x="363" y="406" type="curve" smooth="yes"/>
      <point x="119" y="124" type="line" smooth="yes"/>
      <point x="111" y="115"/>
      <point x="102" y="111"/>
    </contour>
  </outline>
</glyph>
<glyph name="uni00B5" format="1">
  <advance width="1124"/>
  <unicode hex="00B5"/>
  <outline>
    <component base="u" xOffset="12"/>
    <contour>
      <point x="153" y="-248" type="line"/>
      <point x="153" y="299" type="line"/>
      <point x="313" y="281" type="line"/>
      <point x="313" y="-248" type="line"/>
    </contour>
  </outline>
</glyph>
<glyph name="paragraph" format="1">
  <advance width="1055"/>
  <unicode hex="00B6"/>
  <outline>
    <contour>
      <point x="544" y="0" type="line"/>
      <point x="544" y="625" type="line"/>
      <point x="515" y="625" type="line" smooth="yes"/>
      <point x="318" y="629"/>
      <point x="139" y="689"/>
      <point x="139" y="945" type="curve" smooth="yes"/>
      <point x="139" y="1199"/>
      <point x="333" y="1241"/>
      <point x="609" y="1241" type="curve" smooth="yes"/>
      <point x="906" y="1241" type="line"/>
      <point x="906" y="0" type="line"/>
      <point x="773" y="0" type="line"/>
      <point x="773" y="1135" type="line"/>
      <point x="677" y="1135" type="line"/>
      <point x="677" y="0" type="line"/>
    </contour>
  </outline>
</glyph>
<glyph name="onequarter" format="1">
  <advance width="1513"/>
  <unicode hex="00BC"/>
  <outline>
    <contour>
      <point x="976.149" y="259.645" type="line"/>
      <point x="1208.15" y="259.645" type="line"/>
      <point x="1208.15" y="587.645" type="line"/>
    </contour>
    <contour>
      <point x="1208.15" y="0.644531" type="line"/>
      <point x="1208.15" y="172.645" type="line"/>
      <point x="802.149" y="172.645" type="line"/>
      <point x="1320.15" y="866.645" type="line"/>
      <point x="1320.15" y="259.645" type="line"/>
      <point x="1449.15" y="259.645" type="line"/>
      <point x="1449.15" y="172.645" type="line"/>
      <point x="1320.15" y="172.645" type="line"/>
      <point x="1320.15" y="0.644531" type="line"/>
    </contour>
    <contour>
      <point x="235.83" y="426" type="line"/>
      <point x="235.83" y="1104.71" type="line"/>
      <point x="183.57" y="1072.55"/>
      <point x="123.94" y="1047.76"/>
      <point x="69" y="1031.01" type="curve"/>
      <point x="69" y="1123.47" type="line"/>
      <point x="186.92" y="1170.37"/>
      <point x="346.38" y="1273.55"/>
      <point x="346.38" y="1273.55" type="curve"/>
      <point x="346.38" y="426" type="line"/>
    </contour>
    <contour>
      <point x="213.16" y="0" type="line"/>
      <point x="1099.16" y="1241" type="line"/>
      <point x="1218.16" y="1241" type="line"/>
      <point x="331.16" y="0" type="line"/>
    </contour>
  </outline>
</glyph>
<glyph name="onehalf" format="1">
  <advance width="1573"/>
  <unicode hex="00BD"/>
  <outline>
    <contour>
      <point x="989.41" y="1" type="line"/>
      <point x="1292.25" y="406.35" type="line" smooth="yes"/>
      <point x="1347.19" y="479.38"/>
      <point x="1390.07" y="540.35"/>
      <point x="1390.07" y="622.09" type="curve" smooth="yes"/>
      <point x="1390.07" y="715.22"/>
      <point x="1326.42" y="762.12"/>
      <point x="1250.71" y="762.12" type="curve" smooth="yes"/>
      <point x="1173.66" y="762.12"/>
      <point x="1089.24" y="713.88"/>
      <point x="1063.11" y="691.1" type="curve"/>
      <point x="1023.58" y="774.85" type="line"/>
      <point x="1056.41" y="803.66"/>
      <point x="1158.25" y="854.58"/>
      <point x="1257.41" y="854.58" type="curve" smooth="yes"/>
      <point x="1400.12" y="854.58"/>
      <point x="1498.61" y="758.77"/>
      <point x="1498.61" y="614.05" type="curve" smooth="yes"/>
      <point x="1498.61" y="513.55"/>
      <point x="1444.34" y="433.82"/>
      <point x="1368.63" y="335.33" type="curve" smooth="yes"/>
      <point x="1181.03" y="92.1201" type="line"/>
      <point x="1503.3" y="92.1201" type="line"/>
      <point x="1503.3" y="1" type="line"/>
    </contour>
    <contour>
      <point x="232.83" y="426" type="line"/>
      <point x="232.83" y="1104.71" type="line"/>
      <point x="180.57" y="1072.55"/>
      <point x="120.94" y="1047.76"/>
      <point x="66" y="1031.01" type="curve"/>
      <point x="66" y="1123.47" type="line"/>
      <point x="183.92" y="1170.37"/>
      <point x="343.38" y="1273.55"/>
      <point x="343.38" y="1273.55" type="curve"/>
      <point x="343.38" y="426" type="line"/>
    </contour>
    <contour>
      <point x="210.16" y="0" type="line"/>
      <point x="1096.16" y="1241" type="line"/>
      <point x="1215.16" y="1241" type="line"/>
      <point x="328.16" y="0" type="line"/>
    </contour>
  </outline>
</glyph>
<glyph name="threequarters" format="1">
  <advance width="1679"/>
  <unicode hex="00BE"/>
  <outline>
    <contour>
      <point x="1143.15" y="259.645" type="line"/>
      <point x="1375.15" y="259.645" type="line"/>
      <point x="1375.15" y="587.645" type="line"/>
    </contour>
    <contour>
      <point x="1375.15" y="0.644531" type="line"/>
      <point x="1375.15" y="172.645" type="line"/>
      <point x="969.149" y="172.645" type="line"/>
      <point x="1487.15" y="866.645" type="line"/>
      <point x="1487.15" y="259.645" type="line"/>
      <point x="1616.15" y="259.645" type="line"/>
      <point x="1616.15" y="172.645" type="line"/>
      <point x="1487.15" y="172.645" type="line"/>
      <point x="1487.15" y="0.644531" type="line"/>
    </contour>
    <contour>
      <point x="282.39" y="401.22" type="curve" smooth="yes"/>
      <point x="205.34" y="401.22"/>
      <point x="116.229" y="429.36"/>
      <point x="72.0098" y="456.16" type="curve"/>
      <point x="96.1299" y="538.57" type="line"/>
      <point x="158.44" y="506.41"/>
      <point x="224.77" y="491"/>
      <point x="281.05" y="491" type="curve" smooth="yes"/>
      <point x="371.5" y="491"/>
      <point x="441.85" y="545.94"/>
      <point x="441.85" y="632.37" type="curve" smooth="yes"/>
      <point x="441.85" y="732.2"/>
      <point x="375.52" y="797.86"/>
      <point x="193.95" y="844.09" type="curve"/>
      <point x="193.95" y="880.94" type="line"/>
      <point x="321.25" y="912.43"/>
      <point x="427.11" y="966.7"/>
      <point x="427.11" y="1059.83" type="curve" smooth="yes"/>
      <point x="427.11" y="1148.94"/>
      <point x="355.42" y="1189.81"/>
      <point x="275.69" y="1189.81" type="curve" smooth="yes"/>
      <point x="220.08" y="1189.81"/>
      <point x="151.74" y="1170.38"/>
      <point x="101.49" y="1138.89" type="curve"/>
      <point x="70" y="1219.29" type="line"/>
      <point x="124.94" y="1255.06"/>
      <point x="213.38" y="1277.58"/>
      <point x="287.75" y="1277.58" type="curve" smooth="yes"/>
      <point x="414.38" y="1277.58"/>
      <point x="528.95" y="1208.12"/>
      <point x="528.95" y="1063.18" type="curve" smooth="yes"/>
      <point x="528.95" y="961.34"/>
      <point x="445.2" y="895.68"/>
      <point x="360.78" y="867.54" type="curve"/>
      <point x="461.28" y="831.36"/>
      <point x="547.71" y="750.29"/>
      <point x="547.71" y="628.35" type="curve" smooth="yes"/>
      <point x="547.71" y="496.36"/>
      <point x="450.56" y="401.22"/>
    </contour>
    <contour>
      <point x="384.12" y="0" type="line"/>
      <point x="1270.12" y="1241" type="line"/>
      <point x="1389.12" y="1241" type="line"/>
      <point x="502.12" y="0" type="line"/>
    </contour>
  </outline>
</glyph>
<glyph name="questiondown" format="1">
  <advance width="925"/>
  <unicode hex="00BF"/>
  <outline>
    <component base="period" xScale="-1" yScale="-1" xOffset="887" yOffset="841"/>
    <contour>
      <point x="476" y="-434" type="curve" smooth="yes"/>
      <point x="273" y="-434"/>
      <point x="115" y="-318"/>
      <point x="115" y="-107" type="curve" smooth="yes"/>
      <point x="115" y="73"/>
      <point x="258" y="204"/>
      <point x="542" y="479" type="curve"/>
      <point x="674" y="479" type="line"/>
      <point x="353" y="121"/>
      <point x="279" y="32"/>
      <point x="279" y="-101" type="curve" smooth="yes"/>
      <point x="279" y="-234"/>
      <point x="380" y="-296"/>
      <point x="489" y="-296" type="curve" smooth="yes"/>
      <point x="595" y="-296"/>
      <point x="701" y="-244"/>
      <point x="761" y="-200" type="curve"/>
      <point x="822" y="-317" type="line"/>
      <point x="773" y="-360"/>
      <point x="624" y="-434"/>
    </contour>
  </outline>
</glyph>
<glyph name="AE" format="1">
  <advance width="1470"/>
  <unicode hex="00C6"/>
  <outline>
    <component base="E" xOffset="489"/>
    <contour>
      <point x="453" y="409" type="line"/>
      <point x="723" y="409" type="line"/>
      <point x="675" y="939" type="line"/>
    </contour>
    <contour>
      <point x="111" y="0" type="line"/>
      <point x="675" y="1242" type="line"/>
      <point x="805" y="108" type="line"/>
      <point x="716" y="108" type="line"/>
      <point x="717" y="297" type="line"/>
      <point x="411" y="297" type="line"/>
      <point x="280" y="0" type="line"/>
    </contour>
  </outline>
</glyph>
<glyph name="multiply" format="1">
  <advance width="761"/>
  <unicode hex="00D7"/>
  <outline>
    <contour>
      <point x="219" y="355" type="line"/>
      <point x="139" y="436" type="line"/>
      <point x="299" y="596" type="line"/>
      <point x="138" y="758" type="line"/>
      <point x="219" y="838" type="line"/>
      <point x="380" y="677" type="line"/>
      <point x="541" y="838" type="line"/>
      <point x="622" y="758" type="line"/>
      <point x="461" y="596" type="line"/>
      <point x="621" y="436" type="line"/>
      <point x="541" y="355" type="line"/>
      <point x="380" y="516" type="line"/>
    </contour>
  </outline>
</glyph>
<glyph name="Oslash" format="1">
  <advance width="1533"/>
  <unicode hex="00D8"/>
  <outline>
    <component base="O"/>
    <contour>
      <point x="377" y="-88" type="line"/>
      <point x="302" y="-41" type="line"/>
      <point x="1179" y="1322" type="line"/>
      <point x="1254" y="1276" type="line"/>
    </contour>
  </outline>
</glyph>
<glyph name="germandbls" format="1">
  <advance width="1103"/>
  <unicode hex="00DF"/>
  <outline>
    <contour>
      <point x="668" y="-34" type="curve" smooth="yes"/>
      <point x="528" y="-34"/>
      <point x="419" y="21"/>
      <point x="419" y="21" type="curve"/>
      <point x="419" y="152" type="line"/>
      <point x="420" y="152"/>
      <point x="539" y="97"/>
      <point x="654" y="97" type="curve" smooth="yes"/>
      <point x="796" y="97"/>
      <point x="873" y="157"/>
      <point x="873" y="281" type="curve" smooth="yes"/>
      <point x="873" y="380"/>
      <point x="846" y="446"/>
      <point x="707" y="521" type="curve"/>
      <point x="490" y="631" type="line"/>
      <point x="490" y="735" type="line"/>
      <point x="615" y="735"/>
      <point x="746" y="762"/>
      <point x="746" y="926" type="curve" smooth="yes"/>
      <point x="746" y="1048"/>
      <point x="665" y="1121"/>
      <point x="535" y="1121" type="curve" smooth="yes"/>
      <point x="382" y="1121"/>
      <point x="317" y="1028"/>
      <point x="317" y="931" type="curve" smooth="yes"/>
      <point x="317" y="0" type="line"/>
      <point x="154" y="0" type="line"/>
      <point x="154" y="926" type="line" smooth="yes"/>
      <point x="154" y="1090"/>
      <point x="282" y="1241"/>
      <point x="519" y="1241" type="curve" smooth="yes"/>
      <point x="735" y="1241"/>
      <point x="888" y="1127"/>
      <point x="888" y="928" type="curve" smooth="yes"/>
      <point x="888" y="842"/>
      <point x="850" y="707"/>
      <point x="676" y="671" type="curve"/>
      <point x="1005" y="524"/>
      <point x="1022" y="405"/>
      <point x="1022" y="283" type="curve" smooth="yes"/>
      <point x="1022" y="49"/>
      <point x="865" y="-34"/>
    </contour>
  </outline>
</glyph>
<glyph name="ae" format="1">
  <advance width="1514"/>
  <unicode hex="00E6"/>
  <outline>
    <contour>
      <point x="760" y="493" type="curve"/>
      <point x="1196" y="493" type="line"/>
      <point x="1187" y="624"/>
      <point x="1130" y="734"/>
      <point x="992" y="734" type="curve" smooth="yes"/>
      <point x="801" y="734"/>
      <point x="771" y="564"/>
    </contour>
    <contour>
      <point x="395" y="95" type="curve" smooth="yes"/>
      <point x="481" y="95"/>
      <point x="588" y="159"/>
      <point x="643" y="207" type="curve"/>
      <point x="616" y="267"/>
      <point x="601" y="339"/>
      <point x="600" y="418" type="curve"/>
      <point x="594" y="416"/>
      <point x="433" y="376"/>
      <point x="430" y="374" type="curve"/>
      <point x="299" y="336"/>
      <point x="277" y="272"/>
      <point x="277" y="215" type="curve" smooth="yes"/>
      <point x="277" y="148"/>
      <point x="321" y="95"/>
    </contour>
    <contour>
      <point x="365" y="-18" type="curve" smooth="yes"/>
      <point x="230" y="-18"/>
      <point x="120" y="68"/>
      <point x="120" y="201" type="curve" smooth="yes"/>
      <point x="120" y="283"/>
      <point x="155" y="408"/>
      <point x="435" y="471" type="curve"/>
      <point x="599" y="506" type="line"/>
      <point x="599" y="546" type="line" smooth="yes"/>
      <point x="599" y="708"/>
      <point x="498" y="728"/>
      <point x="415" y="728" type="curve" smooth="yes"/>
      <point x="327" y="728"/>
      <point x="224" y="680"/>
      <point x="169" y="652" type="curve"/>
      <point x="125" y="767" type="line"/>
      <point x="169" y="793"/>
      <point x="292" y="853"/>
      <point x="444" y="853" type="curve" smooth="yes"/>
      <point x="543" y="853"/>
      <point x="641" y="811"/>
      <point x="693" y="704" type="curve"/>
      <point x="757" y="800"/>
      <point x="861" y="853"/>
      <point x="975" y="853" type="curve" smooth="yes"/>
      <point x="1236" y="853"/>
      <point x="1329" y="647"/>
      <point x="1329" y="419" type="curve" smooth="yes"/>
      <point x="1329" y="388" type="line"/>
      <point x="751" y="388" type="line"/>
      <point x="770" y="185"/>
      <point x="880" y="105"/>
      <point x="1043" y="105" type="curve" smooth="yes"/>
      <point x="1179" y="105"/>
      <point x="1241" y="149"/>
      <point x="1302" y="185" type="curve"/>
      <point x="1302" y="57" type="line"/>
      <point x="1230" y="15"/>
      <point x="1165" y="-17"/>
      <point x="1040" y="-17" type="curve" smooth="yes"/>
      <point x="892" y="-17"/>
      <point x="768" y="33"/>
      <point x="690" y="133" type="curve"/>
      <point x="592" y="40"/>
      <point x="484" y="-18"/>
    </contour>
  </outline>
</glyph>
<glyph name="eth" format="1">
  <advance width="995"/>
  <unicode hex="00F0"/>
  <outline>
    <contour>
      <point x="279" y="878" type="line"/>
      <point x="228" y="942" type="line"/>
      <point x="385" y="1050" type="line"/>
      <point x="236" y="1241" type="line"/>
      <point x="404" y="1241" type="line"/>
      <point x="404" y="1241"/>
      <point x="444" y="1193"/>
      <point x="497" y="1128" type="curve"/>
      <point x="680" y="1254" type="line"/>
      <point x="731" y="1190" type="line"/>
      <point x="549" y="1064" type="line"/>
      <point x="618" y="978"/>
      <point x="693" y="883"/>
      <point x="728" y="832" type="curve" smooth="yes"/>
      <point x="846" y="662"/>
      <point x="910" y="551"/>
      <point x="910" y="387" type="curve" smooth="yes"/>
      <point x="910" y="161"/>
      <point x="738" y="-18"/>
      <point x="491" y="-18" type="curve" smooth="yes"/>
      <point x="257" y="-18"/>
      <point x="72" y="151"/>
      <point x="72" y="381" type="curve" smooth="yes"/>
      <point x="72" y="613"/>
      <point x="267" y="776"/>
      <point x="461" y="776" type="curve" smooth="yes"/>
      <point x="539" y="776"/>
      <point x="603" y="751"/>
      <point x="632" y="732" type="curve"/>
      <point x="435" y="986" type="line"/>
    </contour>
    <contour>
      <point x="498" y="106" type="curve" smooth="yes"/>
      <point x="657" y="106"/>
      <point x="756" y="231"/>
      <point x="756" y="373" type="curve" smooth="yes"/>
      <point x="756" y="515"/>
      <point x="662" y="652"/>
      <point x="491" y="652" type="curve" smooth="yes"/>
      <point x="335" y="652"/>
      <point x="220" y="532"/>
      <point x="220" y="379" type="curve" smooth="yes"/>
      <point x="220" y="234"/>
      <point x="338" y="106"/>
    </contour>
  </outline>
</glyph>
<glyph name="oslash" format="1">
  <advance width="1146"/>
  <unicode hex="00F8"/>
  <outline>
    <component base="o"/>
    <contour>
      <point x="267" y="-80" type="line"/>
      <point x="211" y="-41" type="line"/>
      <point x="867" y="916" type="line"/>
      <point x="923" y="877" type="line"/>
    </contour>
  </outline>
</glyph>
<glyph name="thorn" format="1">
  <advance width="1078"/>
  <unicode hex="00FE"/>
  <outline>
    <contour>
      <point x="530" y="104" type="curve" smooth="yes"/>
      <point x="734" y="104"/>
      <point x="819" y="248"/>
      <point x="819" y="420" type="curve" smooth="yes"/>
      <point x="819" y="617"/>
      <point x="716" y="730"/>
      <point x="539" y="730" type="curve" smooth="yes"/>
      <point x="428" y="730"/>
      <point x="334" y="663"/>
      <point x="315" y="648" type="curve"/>
      <point x="315" y="142" type="line"/>
      <point x="321" y="141"/>
      <point x="414" y="104"/>
    </contour>
    <contour>
      <point x="156" y="-406" type="line"/>
      <point x="156" y="1241" type="line"/>
      <point x="315" y="1241" type="line"/>
      <point x="315" y="763" type="line"/>
      <point x="378" y="818"/>
      <point x="469" y="853"/>
      <point x="580" y="853" type="curve" smooth="yes"/>
      <point x="816" y="853"/>
      <point x="975" y="665"/>
      <point x="975" y="418" type="curve" smooth="yes"/>
      <point x="975" y="171"/>
      <point x="821" y="-15"/>
      <point x="558" y="-15" type="curve" smooth="yes"/>
      <point x="404" y="-15"/>
      <point x="315" y="30"/>
      <point x="315" y="30" type="curve"/>
      <point x="315" y="-389" type="line"/>
    </contour>
  </outline>
</glyph>
<glyph name="Dcroat" format="1">
  <advance width="1399"/>
  <unicode hex="0110"/>
  <outline>
    <contour>
      <point x="-1" y="606" type="line"/>
      <point x="-1" y="714" type="line"/>
      <point x="156" y="714" type="line"/>
      <point x="156" y="1241" type="line"/>
      <point x="675" y="1241" type="line" smooth="yes"/>
      <point x="1086" y="1241"/>
      <point x="1300" y="990"/>
      <point x="1300" y="628" type="curve" smooth="yes"/>
      <point x="1300" y="296"/>
      <point x="1068" y="0"/>
      <point x="645" y="0" type="curve" smooth="yes"/>
      <point x="156" y="0" type="line"/>
      <point x="156" y="606" type="line"/>
    </contour>
    <contour>
      <point x="318" y="131" type="line"/>
      <point x="624" y="131" type="line" smooth="yes"/>
      <point x="938" y="131"/>
      <point x="1134" y="337"/>
      <point x="1134" y="624" type="curve" smooth="yes"/>
      <point x="1134" y="953"/>
      <point x="952" y="1110"/>
      <point x="672" y="1110" type="curve" smooth="yes"/>
      <point x="318" y="1110" type="line"/>
      <point x="318" y="714" type="line"/>
      <point x="643" y="714" type="line"/>
      <point x="643" y="606" type="line"/>
      <point x="318" y="606" type="line"/>
    </contour>
  </outline>
</glyph>
<glyph name="gcommaaccent" format="1">
  <advance width="1070"/>
  <unicode hex="0123"/>
  <outline>
    <component base="g"/>
    <contour>
      <point x="671" y="1329" type="line"/>
      <point x="632" y="1278"/>
      <point x="591" y="1230"/>
      <point x="578" y="1177" type="curve"/>
      <point x="624" y="1163"/>
      <point x="650" y="1121"/>
      <point x="650" y="1078" type="curve" smooth="yes"/>
      <point x="650" y="1027"/>
      <point x="612" y="974"/>
      <point x="543" y="974" type="curve" smooth="yes"/>
      <point x="476" y="974"/>
      <point x="439" y="1028"/>
      <point x="439" y="1078" type="curve" smooth="yes"/>
      <point x="439" y="1144"/>
      <point x="484" y="1226"/>
      <point x="606" y="1329" type="curve"/>
    </contour>
  </outline>
</glyph>
<glyph name="Hbar" format="1">
  <advance width="1338"/>
  <unicode hex="0126"/>
  <outline>
    <contour>
      <point x="75" y="975" type="line"/>
      <point x="75" y="1083" type="line"/>
      <point x="156" y="1083" type="line"/>
      <point x="156" y="1241" type="line"/>
      <point x="321" y="1241" type="line"/>
      <point x="321" y="1083" type="line"/>
      <point x="1016" y="1083" type="line"/>
      <point x="1016" y="1241" type="line"/>
      <point x="1181" y="1241" type="line"/>
      <point x="1181" y="1083" type="line"/>
      <point x="1263" y="1083" type="line"/>
      <point x="1263" y="975" type="line"/>
      <point x="1181" y="975" type="line"/>
      <point x="1181" y="0" type="line"/>
      <point x="1016" y="0" type="line"/>
      <point x="1016" y="585" type="line"/>
      <point x="321" y="585" type="line"/>
      <point x="321" y="0" type="line"/>
      <point x="156" y="0" type="line"/>
      <point x="156" y="975" type="line"/>
    </contour>
    <contour>
      <point x="1016" y="975" type="line"/>
      <point x="321" y="975" type="line"/>
      <point x="321" y="721" type="line"/>
      <point x="1016" y="721" type="line"/>
    </contour>
  </outline>
</glyph>
<glyph name="kgreenlandic" format="1">
  <advance width="926"/>
  <unicode hex="0138"/>
  <outline>
    <contour>
      <point x="156" y="-1" type="line"/>
      <point x="156" y="834" type="line"/>
      <point x="314" y="834" type="line"/>
      <point x="314" y="454" type="line"/>
      <point x="676" y="834" type="line"/>
      <point x="872" y="834" type="line"/>
      <point x="481" y="425" type="line"/>
      <point x="930" y="0" type="line"/>
      <point x="728" y="0" type="line"/>
      <point x="314" y="388" type="line"/>
      <point x="314" y="-1" type="line"/>
    </contour>
  </outline>
</glyph>
<glyph name="Lslash" format="1">
  <advance width="1009"/>
  <unicode hex="0141"/>
  <outline>
    <contour>
      <point x="351" y="609.975" type="line"/>
      <point x="351" y="139" type="line"/>
      <point x="883" y="139" type="line"/>
      <point x="883" y="0" type="line"/>
      <point x="186" y="0" type="line"/>
      <point x="186" y="533.112" type="line"/>
      <point x="-1" y="446" type="line"/>
      <point x="-1" y="554" type="line"/>
      <point x="186" y="641.112" type="line"/>
      <point x="186" y="1241" type="line"/>
      <point x="351" y="1241" type="line"/>
      <point x="351" y="717.975" type="line"/>
      <point x="643" y="854" type="line"/>
      <point x="643" y="746" type="line"/>
    </contour>
  </outline>
</glyph>
<glyph name="lslash" format="1">
  <advance width="677"/>
  <unicode hex="0142"/>
  <outline>
    <contour>
      <point x="471" y="-18" type="curve" smooth="yes"/>
      <point x="341" y="-18"/>
      <point x="237" y="63"/>
      <point x="237" y="229" type="curve" smooth="yes"/>
      <point x="237" y="529.659" type="line"/>
      <point x="74" y="439.3" type="line"/>
      <point x="74" y="547.3" type="line"/>
      <point x="237" y="637.659" type="line"/>
      <point x="237" y="1223" type="line"/>
      <point x="395" y="1249" type="line"/>
      <point x="395" y="721.851" type="line"/>
      <point x="643" y="854" type="line"/>
      <point x="643" y="746" type="line"/>
      <point x="395" y="613.851" type="line"/>
      <point x="395" y="257" type="line" smooth="yes"/>
      <point x="395" y="146"/>
      <point x="428" y="108"/>
      <point x="501" y="108" type="curve" smooth="yes"/>
      <point x="558" y="108"/>
      <point x="619" y="125"/>
      <point x="644" y="134" type="curve"/>
      <point x="644" y="15" type="line"/>
      <point x="616" y="4"/>
      <point x="562" y="-18"/>
    </contour>
  </outline>
</glyph>
<glyph name="Eng" format="1">
  <advance width="1362"/>
  <unicode hex="014A"/>
  <outline>
    <contour>
      <point x="605" y="-336" type="curve"/>
      <point x="605" y="-203" type="line"/>
      <point x="688.504" y="-234.219"/>
      <point x="768.844" y="-255.657"/>
      <point x="837.263" y="-255.657" type="curve" smooth="yes"/>
      <point x="956.838" y="-255.657"/>
      <point x="1040" y="-190.177"/>
      <point x="1040" y="3" type="curve" smooth="yes"/>
      <point x="1040" y="137.535" type="line"/>
      <point x="321" y="892" type="line"/>
      <point x="321" y="0" type="line"/>
      <point x="156" y="0" type="line"/>
      <point x="156" y="1273" type="line"/>
      <point x="1040" y="339" type="line"/>
      <point x="1040" y="852" type="line"/>
      <point x="1040" y="1241" type="line"/>
      <point x="1205" y="1241" type="line"/>
      <point x="1205" y="852" type="line"/>
      <point x="1205" y="123" type="line"/>
      <point x="1205" y="13" type="line" smooth="yes"/>
      <point x="1205" y="-252.344"/>
      <point x="1055.88" y="-397.376"/>
      <point x="851.3" y="-397.376" type="curve" smooth="yes"/>
      <point x="775.26" y="-397.376"/>
      <point x="691.557" y="-377.341"/>
    </contour>
  </outline>
</glyph>
<glyph name="eng" format="1">
  <advance width="1113"/>
  <unicode hex="014B"/>
  <outline>
    <contour>
      <point x="156" y="0" type="line"/>
      <point x="156" y="835" type="line"/>
      <point x="313" y="835" type="line"/>
      <point x="313" y="713" type="line"/>
      <point x="334" y="731"/>
      <point x="449" y="853"/>
      <point x="664" y="853" type="curve" smooth="yes"/>
      <point x="828" y="853"/>
      <point x="976" y="742"/>
      <point x="976" y="580" type="curve" smooth="yes"/>
      <point x="976" y="41" type="line" smooth="yes"/>
      <point x="976" y="-193.932"/>
      <point x="844.529" y="-322.342"/>
      <point x="664.154" y="-322.342" type="curve" smooth="yes"/>
      <point x="597.112" y="-322.342"/>
      <point x="523.314" y="-304.602"/>
      <point x="447" y="-268" type="curve"/>
      <point x="447" y="-135" type="line"/>
      <point x="517.067" y="-160.158"/>
      <point x="584.89" y="-177.335"/>
      <point x="642.865" y="-177.335" type="curve" smooth="yes"/>
      <point x="744.593" y="-177.335"/>
      <point x="816" y="-124.449"/>
      <point x="816" y="31" type="curve" smooth="yes"/>
      <point x="816" y="559" type="line" smooth="yes"/>
      <point x="816" y="683"/>
      <point x="744" y="731"/>
      <point x="612" y="731" type="curve" smooth="yes"/>
      <point x="442" y="731"/>
      <point x="322" y="603"/>
      <point x="316" y="592" type="curve"/>
      <point x="316" y="0" type="line"/>
    </contour>
  </outline>
</glyph>
<glyph name="OE" format="1">
  <advance width="2047"/>
  <unicode hex="0152"/>
  <outline>
    <contour>
      <point x="759" y="104" type="curve" smooth="yes"/>
      <point x="1001" y="104"/>
      <point x="1260" y="270"/>
      <point x="1260" y="618" type="curve" smooth="yes"/>
      <point x="1260" y="970"/>
      <point x="1022" y="1137"/>
      <point x="760" y="1137" type="curve" smooth="yes"/>
      <point x="495" y="1137"/>
      <point x="262" y="970"/>
      <point x="262" y="619" type="curve" smooth="yes"/>
      <point x="262" y="269"/>
      <point x="505" y="104"/>
    </contour>
    <contour>
      <point x="757" y="-34" type="curve" smooth="yes"/>
      <point x="420" y="-34"/>
      <point x="95" y="183"/>
      <point x="95" y="619" type="curve" smooth="yes"/>
      <point x="95" y="1058"/>
      <point x="420" y="1274"/>
      <point x="756" y="1274" type="curve" smooth="yes"/>
      <point x="956" y="1274"/>
      <point x="1144" y="1198"/>
      <point x="1260" y="1043" type="curve"/>
      <point x="1260" y="1241" type="line"/>
      <point x="1981" y="1241" type="line"/>
      <point x="1981" y="1104" type="line"/>
      <point x="1422" y="1104" type="line"/>
      <point x="1422" y="708" type="line"/>
      <point x="1917" y="708" type="line"/>
      <point x="1917" y="572" type="line"/>
      <point x="1420" y="572" type="line"/>
      <point x="1420" y="139" type="line"/>
      <point x="1991" y="139" type="line"/>
      <point x="1991" y="0" type="line"/>
      <point x="1260" y="0" type="line"/>
      <point x="1260" y="199" type="line"/>
      <point x="1144" y="43"/>
      <point x="956" y="-34"/>
    </contour>
  </outline>
</glyph>
<glyph name="oe" format="1">
  <advance width="1721"/>
  <unicode hex="0153"/>
  <outline>
    <contour>
      <point x="557" y="106" type="curve" smooth="yes"/>
      <point x="759" y="106"/>
      <point x="859" y="259"/>
      <point x="859" y="415" type="curve" smooth="yes"/>
      <point x="859" y="572"/>
      <point x="757" y="729"/>
      <point x="557" y="729" type="curve" smooth="yes"/>
      <point x="358" y="729"/>
      <point x="252" y="572"/>
      <point x="252" y="416" type="curve" smooth="yes"/>
      <point x="252" y="248"/>
      <point x="355" y="106"/>
    </contour>
    <contour>
      <point x="555" y="-18" type="curve" smooth="yes"/>
      <point x="314" y="-18"/>
      <point x="102" y="143"/>
      <point x="102" y="415" type="curve" smooth="yes"/>
      <point x="102" y="690"/>
      <point x="315" y="853"/>
      <point x="556" y="853" type="curve" smooth="yes"/>
      <point x="704" y="853"/>
      <point x="846" y="785"/>
      <point x="927" y="661" type="curve"/>
      <point x="994" y="779"/>
      <point x="1116" y="853"/>
      <point x="1261" y="853" type="curve" smooth="yes"/>
      <point x="1523" y="853"/>
      <point x="1633" y="647"/>
      <point x="1633" y="419" type="curve" smooth="yes"/>
      <point x="1633" y="388" type="line"/>
      <point x="1011" y="388" type="line"/>
      <point x="1030" y="185"/>
      <point x="1167" y="105"/>
      <point x="1329" y="105" type="curve" smooth="yes"/>
      <point x="1466" y="105"/>
      <point x="1544" y="149"/>
      <point x="1606" y="185" type="curve"/>
      <point x="1606" y="57" type="line"/>
      <point x="1534" y="15"/>
      <point x="1451" y="-17"/>
      <point x="1327" y="-17" type="curve" smooth="yes"/>
      <point x="1157" y="-17"/>
      <point x="1012" y="48"/>
      <point x="934" y="178" type="curve"/>
      <point x="856" y="52"/>
      <point x="714" y="-18"/>
    </contour>
    <contour>
      <point x="1020" y="493" type="curve"/>
      <point x="1500" y="493" type="line"/>
      <point x="1491" y="624"/>
      <point x="1416" y="734"/>
      <point x="1279" y="734" type="curve" smooth="yes"/>
      <point x="1088" y="734"/>
      <point x="1031" y="564"/>
    </contour>
  </outline>
</glyph>
<glyph name="Tbar" format="1">
  <advance width="1122"/>
  <unicode hex="0166"/>
  <outline>
    <contour>
      <point x="231" y="496" type="line"/>
      <point x="231" y="604" type="line"/>
      <point x="474" y="604" type="line"/>
      <point x="474" y="1102" type="line"/>
      <point x="86" y="1102" type="line"/>
      <point x="86" y="1241" type="line"/>
      <point x="1028" y="1241" type="line"/>
      <point x="1028" y="1102" type="line"/>
      <point x="640" y="1102" type="line"/>
      <point x="640" y="604" type="line"/>
      <point x="875" y="604" type="line"/>
      <point x="875" y="496" type="line"/>
      <point x="640" y="496" type="line"/>
      <point x="640" y="0" type="line"/>
      <point x="474" y="0" type="line"/>
      <point x="474" y="496" type="line"/>
    </contour>
  </outline>
</glyph>
<glyph name="tbar" format="1">
  <advance width="730"/>
  <unicode hex="0167"/>
  <outline>
    <contour>
      <point x="57" y="406" type="line"/>
      <point x="57" y="514" type="line"/>
      <point x="193" y="514" type="line"/>
      <point x="193" y="712" type="line"/>
      <point x="110" y="712" type="line" smooth="yes"/>
      <point x="93" y="712"/>
      <point x="85" y="722"/>
      <point x="85" y="732" type="curve" smooth="yes"/>
      <point x="85" y="738"/>
      <point x="88" y="745"/>
      <point x="93" y="750" type="curve" smooth="yes"/>
      <point x="350" y="1026" type="line"/>
      <point x="350" y="835" type="line"/>
      <point x="627" y="835" type="line"/>
      <point x="627" y="712" type="line"/>
      <point x="350" y="712" type="line"/>
      <point x="350" y="514" type="line"/>
      <point x="661" y="514" type="line"/>
      <point x="661" y="406" type="line"/>
      <point x="350" y="406" type="line"/>
      <point x="350" y="226" type="line" smooth="yes"/>
      <point x="350" y="128"/>
      <point x="407" y="107"/>
      <point x="475" y="107" type="curve" smooth="yes"/>
      <point x="565" y="107"/>
      <point x="640" y="146"/>
      <point x="672" y="160" type="curve"/>
      <point x="672" y="43" type="line"/>
      <point x="645" y="26"/>
      <point x="575" y="-18"/>
      <point x="449" y="-18" type="curve" smooth="yes"/>
      <point x="313" y="-18"/>
      <point x="193" y="58"/>
      <point x="193" y="197" type="curve" smooth="yes"/>
      <point x="193" y="406" type="line"/>
    </contour>
  </outline>
</glyph>
<glyph name="uni0237" format="1">
  <advance width="539"/>
  <unicode hex="0237"/>
  <outline>
    <contour>
      <point x="46" y="-330" type="curve"/>
      <point x="17" y="-202" type="line"/>
      <point x="25" y="-201"/>
      <point x="39" y="-199"/>
      <point x="46" y="-199" type="curve" smooth="yes"/>
      <point x="137" y="-189"/>
      <point x="209" y="-159"/>
      <point x="209" y="-57" type="curve" smooth="yes"/>
      <point x="209" y="835" type="line"/>
      <point x="368" y="835" type="line"/>
      <point x="368" y="-67" type="line" smooth="yes"/>
      <point x="368" y="-175"/>
      <point x="327" y="-319"/>
    </contour>
  </outline>
</glyph>
<glyph name="circumflex" format="1">
  <advance width="766"/>
  <unicode hex="02C6"/>
  <outline>
    <contour>
      <point x="160" y="134" type="curve" smooth="yes"/>
      <point x="148" y="134"/>
      <point x="138" y="144"/>
      <point x="138" y="159" type="curve" smooth="yes"/>
      <point x="138" y="164"/>
      <point x="140" y="170"/>
      <point x="143" y="177" type="curve" smooth="yes"/>
      <point x="308" y="499" type="line" smooth="yes"/>
      <point x="324" y="531"/>
      <point x="352" y="552"/>
      <point x="382" y="552" type="curve" smooth="yes"/>
      <point x="412" y="552"/>
      <point x="441" y="530"/>
      <point x="456" y="499" type="curve" smooth="yes"/>
      <point x="621" y="177" type="line" smooth="yes"/>
      <point x="625" y="170"/>
      <point x="626" y="164"/>
      <point x="626" y="159" type="curve" smooth="yes"/>
      <point x="626" y="144"/>
      <point x="616" y="134"/>
      <point x="604" y="134" type="curve" smooth="yes"/>
      <point x="596" y="134"/>
      <point x="588" y="139"/>
      <point x="579" y="148" type="curve" smooth="yes"/>
      <point x="382" y="376" type="line"/>
      <point x="185" y="148" type="line" smooth="yes"/>
      <point x="177" y="139"/>
      <point x="168" y="134"/>
    </contour>
  </outline>
</glyph>
<glyph name="caron" format="1">
  <advance width="765"/>
  <unicode hex="02C7"/>
  <outline>
    <contour>
      <point x="382" y="142" type="curve" smooth="yes"/>
      <point x="352" y="142"/>
      <point x="323" y="164"/>
      <point x="308" y="195" type="curve" smooth="yes"/>
      <point x="143" y="517" type="line" smooth="yes"/>
      <point x="140" y="524"/>
      <point x="138" y="531"/>
      <point x="138" y="536" type="curve" smooth="yes"/>
      <point x="138" y="550"/>
      <point x="148" y="560"/>
      <point x="160" y="560" type="curve" smooth="yes"/>
      <point x="168" y="560"/>
      <point x="177" y="555"/>
      <point x="185" y="546" type="curve" smooth="yes"/>
      <point x="382" y="318" type="line"/>
      <point x="579" y="546" type="line" smooth="yes"/>
      <point x="588" y="555"/>
      <point x="596" y="560"/>
      <point x="604" y="560" type="curve" smooth="yes"/>
      <point x="616" y="560"/>
      <point x="626" y="550"/>
      <point x="626" y="536" type="curve" smooth="yes"/>
      <point x="626" y="531"/>
      <point x="625" y="524"/>
      <point x="621" y="517" type="curve" smooth="yes"/>
      <point x="456" y="195" type="line" smooth="yes"/>
      <point x="440" y="163"/>
      <point x="412" y="142"/>
    </contour>
  </outline>
</glyph>
<glyph name="breve" format="1">
  <advance width="743"/>
  <unicode hex="02D8"/>
  <outline>
    <contour>
      <point x="370" y="142" type="curve" smooth="yes"/>
      <point x="164" y="142"/>
      <point x="142" y="330"/>
      <point x="142" y="330" type="curve"/>
      <point x="228" y="350" type="line"/>
      <point x="228" y="350"/>
      <point x="252" y="237"/>
      <point x="370" y="237" type="curve" smooth="yes"/>
      <point x="488" y="237"/>
      <point x="512" y="350"/>
      <point x="512" y="350" type="curve"/>
      <point x="598" y="330" type="line"/>
      <point x="598" y="330"/>
      <point x="576" y="142"/>
    </contour>
  </outline>
</glyph>
<glyph name="ring" format="1">
  <advance width="736"/>
  <unicode hex="02DA"/>
  <outline>
    <contour>
      <point x="367" y="255" type="curve" smooth="yes"/>
      <point x="455" y="255"/>
      <point x="499" y="321"/>
      <point x="499" y="388" type="curve" smooth="yes"/>
      <point x="499" y="456"/>
      <point x="453" y="524"/>
      <point x="367" y="524" type="curve" smooth="yes"/>
      <point x="281" y="524"/>
      <point x="235" y="456"/>
      <point x="235" y="389" type="curve" smooth="yes"/>
      <point x="235" y="316"/>
      <point x="279" y="255"/>
    </contour>
    <contour>
      <point x="367" y="177" type="curve" smooth="yes"/>
      <point x="252" y="177"/>
      <point x="146" y="253"/>
      <point x="146" y="389" type="curve" smooth="yes"/>
      <point x="146" y="525"/>
      <point x="252" y="604"/>
      <point x="368" y="604" type="curve" smooth="yes"/>
      <point x="477" y="604"/>
      <point x="590" y="525"/>
      <point x="590" y="389" type="curve" smooth="yes"/>
      <point x="590" y="254"/>
      <point x="483" y="177"/>
    </contour>
  </outline>
</glyph>
<glyph name="ogonek" format="1">
  <advance width="451"/>
  <unicode hex="02DB"/>
  <outline>
    <contour>
      <point x="264" y="-384" type="line"/>
      <point x="182" y="-354"/>
      <point x="121" y="-303"/>
      <point x="121" y="-231" type="curve" smooth="yes"/>
      <point x="121" y="-168"/>
      <point x="167" y="-91"/>
      <point x="274" y="0" type="curve"/>
      <point x="333" y="0" type="line"/>
      <point x="287" y="-58"/>
      <point x="244" y="-114"/>
      <point x="244" y="-176" type="curve" smooth="yes"/>
      <point x="244" y="-222"/>
      <point x="269" y="-272"/>
      <point x="333" y="-326" type="curve"/>
    </contour>
  </outline>
</glyph>
<glyph name="tilde" format="1">
  <advance width="921"/>
  <unicode hex="02DC"/>
  <outline>
    <contour>
      <point x="605" y="163" type="curve" smooth="yes"/>
      <point x="474" y="163"/>
      <point x="386" y="268"/>
      <point x="303" y="268" type="curve" smooth="yes"/>
      <point x="263" y="268"/>
      <point x="247" y="241"/>
      <point x="244" y="177" type="curve"/>
      <point x="140" y="177" type="line"/>
      <point x="141" y="342"/>
      <point x="197" y="387"/>
      <point x="301" y="387" type="curve" smooth="yes"/>
      <point x="413" y="387"/>
      <point x="540" y="279"/>
      <point x="601" y="279" type="curve" smooth="yes"/>
      <point x="645" y="279"/>
      <point x="661" y="301"/>
      <point x="663" y="373" type="curve"/>
      <point x="768" y="373" type="line"/>
      <point x="767" y="210"/>
      <point x="702" y="163"/>
    </contour>
  </outline>
</glyph>
<glyph name="hungarumlaut" format="1">
  <advance width="689"/>
  <unicode hex="02DD"/>
  <outline>
    <contour>
      <point x="108" y="111" type="curve" smooth="yes"/>
      <point x="96" y="111"/>
      <point x="86" y="120"/>
      <point x="86" y="135" type="curve" smooth="yes"/>
      <point x="86" y="140"/>
      <point x="88" y="146"/>
      <point x="91" y="153" type="curve" smooth="yes"/>
      <point x="256" y="475" type="line" smooth="yes"/>
      <point x="275" y="512"/>
      <point x="303" y="528"/>
      <point x="329" y="528" type="curve" smooth="yes"/>
      <point x="366" y="528"/>
      <point x="401" y="498"/>
      <point x="401" y="461" type="curve" smooth="yes"/>
      <point x="401" y="444"/>
      <point x="394" y="425"/>
      <point x="377" y="406" type="curve" smooth="yes"/>
      <point x="133" y="124" type="line" smooth="yes"/>
      <point x="125" y="115"/>
      <point x="116" y="111"/>
    </contour>
    <contour>
      <point x="368" y="111" type="curve" smooth="yes"/>
      <point x="356" y="111"/>
      <point x="346" y="120"/>
      <point x="346" y="135" type="curve" smooth="yes"/>
      <point x="346" y="140"/>
      <point x="348" y="146"/>
      <point x="351" y="153" type="curve" smooth="yes"/>
      <point x="516" y="475" type="line" smooth="yes"/>
      <point x="535" y="512"/>
      <point x="563" y="528"/>
      <point x="589" y="528" type="curve" smooth="yes"/>
      <point x="626" y="528"/>
      <point x="661" y="498"/>
      <point x="661" y="461" type="curve" smooth="yes"/>
      <point x="661" y="444"/>
      <point x="654" y="425"/>
      <point x="637" y="406" type="curve" smooth="yes"/>
      <point x="393" y="124" type="line" smooth="yes"/>
      <point x="385" y="115"/>
      <point x="376" y="111"/>
    </contour>
  </outline>
</glyph>
<glyph name="dblgravecmb" format="1">
  <advance width="651"/>
  <unicode hex="030F"/>
  <outline>
    <contour>
      <point x="556" y="111" type="curve" smooth="yes"/>
      <point x="548" y="111"/>
      <point x="539" y="115"/>
      <point x="531" y="124" type="curve" smooth="yes"/>
      <point x="287" y="406" type="line" smooth="yes"/>
      <point x="270" y="425"/>
      <point x="263" y="444"/>
      <point x="263" y="461" type="curve" smooth="yes"/>
      <point x="263" y="498"/>
      <point x="298" y="528"/>
      <point x="335" y="528" type="curve" smooth="yes"/>
      <point x="361" y="528"/>
      <point x="389" y="512"/>
      <point x="408" y="475" type="curve" smooth="yes"/>
      <point x="573" y="153" type="line" smooth="yes"/>
      <point x="576" y="146"/>
      <point x="578" y="140"/>
      <point x="578" y="135" type="curve" smooth="yes"/>
      <point x="578" y="120"/>
      <point x="568" y="111"/>
    </contour>
    <contour>
      <point x="288" y="111" type="curve" smooth="yes"/>
      <point x="280" y="111"/>
      <point x="271" y="115"/>
      <point x="263" y="124" type="curve" smooth="yes"/>
      <point x="19" y="406" type="line" smooth="yes"/>
      <point x="2" y="425"/>
      <point x="-5" y="444"/>
      <point x="-5" y="461" type="curve" smooth="yes"/>
      <point x="-5" y="498"/>
      <point x="30" y="528"/>
      <point x="67" y="528" type="curve" smooth="yes"/>
      <point x="93" y="528"/>
      <point x="121" y="512"/>
      <point x="140" y="475" type="curve" smooth="yes"/>
      <point x="305" y="153" type="line" smooth="yes"/>
      <point x="308" y="146"/>
      <point x="310" y="140"/>
      <point x="310" y="135" type="curve" smooth="yes"/>
      <point x="310" y="120"/>
      <point x="300" y="111"/>
    </contour>
  </outline>
</glyph>
<glyph name="uni0311" format="1">
  <advance width="743"/>
  <unicode hex="0311"/>
  <outline>
    <contour>
      <point x="228" y="142" type="curve"/>
      <point x="142" y="162" type="line"/>
      <point x="142" y="162"/>
      <point x="164" y="350"/>
      <point x="370" y="350" type="curve" smooth="yes"/>
      <point x="576" y="350"/>
      <point x="598" y="162"/>
      <point x="598" y="162" type="curve"/>
      <point x="512" y="142" type="line"/>
      <point x="512" y="142"/>
      <point x="488" y="255"/>
      <point x="370" y="255" type="curve" smooth="yes"/>
      <point x="252" y="255"/>
      <point x="228" y="142"/>
    </contour>
  </outline>
</glyph>
<glyph name="uni0326" format="1">
  <advance width="459"/>
  <unicode hex="0326"/>
  <outline>
    <contour>
      <point x="306" y="-99" type="curve" smooth="yes"/>
      <point x="343" y="-99"/>
      <point x="378" y="-128"/>
      <point x="378" y="-165" type="curve" smooth="yes"/>
      <point x="378" y="-181"/>
      <point x="371" y="-198"/>
      <point x="357" y="-216" type="curve" smooth="yes"/>
      <point x="167" y="-447" type="line" smooth="yes"/>
      <point x="159" y="-456"/>
      <point x="150" y="-460"/>
      <point x="142" y="-460" type="curve" smooth="yes"/>
      <point x="130" y="-460"/>
      <point x="120" y="-451"/>
      <point x="120" y="-437" type="curve" smooth="yes"/>
      <point x="120" y="-432"/>
      <point x="121" y="-426"/>
      <point x="123" y="-421" type="curve" smooth="yes"/>
      <point x="235" y="-151" type="line"/>
      <point x="252" y="-114"/>
      <point x="280" y="-99"/>
    </contour>
  </outline>
</glyph>
<glyph name="quoteleft" format="1">
  <advance width="493"/>
  <unicode hex="2018"/>
  <outline>
    <contour>
      <point x="367" y="886" type="curve"/>
      <point x="302" y="886" type="line"/>
      <point x="180" y="989"/>
      <point x="135" y="1071"/>
      <point x="135" y="1137" type="curve" smooth="yes"/>
      <point x="135" y="1187"/>
      <point x="172" y="1241"/>
      <point x="239" y="1241" type="curve" smooth="yes"/>
      <point x="308" y="1241"/>
      <point x="346" y="1188"/>
      <point x="346" y="1137" type="curve" smooth="yes"/>
      <point x="346" y="1094"/>
      <point x="320" y="1052"/>
      <point x="274" y="1038" type="curve"/>
      <point x="287" y="985"/>
      <point x="328" y="937"/>
    </contour>
  </outline>
</glyph>
<glyph name="quoteright" format="1">
  <advance width="492"/>
  <unicode hex="2019"/>
  <outline>
    <contour>
      <point x="127" y="886" type="line"/>
      <point x="166" y="937"/>
      <point x="207" y="985"/>
      <point x="220" y="1038" type="curve"/>
      <point x="174" y="1052"/>
      <point x="148" y="1094"/>
      <point x="148" y="1137" type="curve" smooth="yes"/>
      <point x="148" y="1188"/>
      <point x="186" y="1241"/>
      <point x="255" y="1241" type="curve" smooth="yes"/>
      <point x="322" y="1241"/>
      <point x="359" y="1187"/>
      <point x="359" y="1137" type="curve" smooth="yes"/>
      <point x="359" y="1071"/>
      <point x="314" y="989"/>
      <point x="192" y="886" type="curve"/>
    </contour>
  </outline>
</glyph>
<glyph name="quotedblleft" format="1">
  <advance width="761"/>
  <unicode hex="201C"/>
  <outline>
    <contour>
      <point x="367" y="886" type="curve"/>
      <point x="302" y="886" type="line"/>
      <point x="180" y="989"/>
      <point x="135" y="1071"/>
      <point x="135" y="1137" type="curve" smooth="yes"/>
      <point x="135" y="1187"/>
      <point x="172" y="1241"/>
      <point x="239" y="1241" type="curve" smooth="yes"/>
      <point x="308" y="1241"/>
      <point x="346" y="1188"/>
      <point x="346" y="1137" type="curve" smooth="yes"/>
      <point x="346" y="1094"/>
      <point x="320" y="1052"/>
      <point x="274" y="1038" type="curve"/>
      <point x="287" y="985"/>
      <point x="328" y="937"/>
    </contour>
    <contour>
      <point x="635" y="886" type="curve"/>
      <point x="570" y="886" type="line"/>
      <point x="448" y="989"/>
      <point x="403" y="1071"/>
      <point x="403" y="1137" type="curve" smooth="yes"/>
      <point x="403" y="1187"/>
      <point x="440" y="1241"/>
      <point x="507" y="1241" type="curve" smooth="yes"/>
      <point x="576" y="1241"/>
      <point x="614" y="1188"/>
      <point x="614" y="1137" type="curve" smooth="yes"/>
      <point x="614" y="1094"/>
      <point x="588" y="1052"/>
      <point x="542" y="1038" type="curve"/>
      <point x="555" y="985"/>
      <point x="596" y="937"/>
    </contour>
  </outline>
</glyph>
<glyph name="quotedblright" format="1">
  <advance width="760"/>
  <unicode hex="201D"/>
  <outline>
    <contour>
      <point x="395" y="886" type="line"/>
      <point x="434" y="937"/>
      <point x="475" y="985"/>
      <point x="488" y="1038" type="curve"/>
      <point x="442" y="1052"/>
      <point x="416" y="1094"/>
      <point x="416" y="1137" type="curve" smooth="yes"/>
      <point x="416" y="1188"/>
      <point x="454" y="1241"/>
      <point x="523" y="1241" type="curve" smooth="yes"/>
      <point x="590" y="1241"/>
      <point x="627" y="1187"/>
      <point x="627" y="1137" type="curve" smooth="yes"/>
      <point x="627" y="1071"/>
      <point x="582" y="989"/>
      <point x="460" y="886" type="curve"/>
    </contour>
    <contour>
      <point x="127" y="886" type="line"/>
      <point x="166" y="937"/>
      <point x="207" y="985"/>
      <point x="220" y="1038" type="curve"/>
      <point x="174" y="1052"/>
      <point x="148" y="1094"/>
      <point x="148" y="1137" type="curve" smooth="yes"/>
      <point x="148" y="1188"/>
      <point x="186" y="1241"/>
      <point x="255" y="1241" type="curve" smooth="yes"/>
      <point x="322" y="1241"/>
      <point x="359" y="1187"/>
      <point x="359" y="1137" type="curve" smooth="yes"/>
      <point x="359" y="1071"/>
      <point x="314" y="989"/>
      <point x="192" y="886" type="curve"/>
    </contour>
  </outline>
</glyph>
<glyph name="quotedblbase" format="1">
  <advance width="755"/>
  <unicode hex="201E"/>
  <outline>
    <contour>
      <point x="390" y="-131" type="line"/>
      <point x="429" y="-80"/>
      <point x="470" y="-32"/>
      <point x="483" y="21" type="curve"/>
      <point x="437" y="35"/>
      <point x="411" y="77"/>
      <point x="411" y="120" type="curve" smooth="yes"/>
      <point x="411" y="171"/>
      <point x="449" y="224"/>
      <point x="518" y="224" type="curve" smooth="yes"/>
      <point x="585" y="224"/>
      <point x="622" y="170"/>
      <point x="622" y="120" type="curve" smooth="yes"/>
      <point x="622" y="54"/>
      <point x="577" y="-28"/>
      <point x="455" y="-131" type="curve"/>
    </contour>
    <contour>
      <point x="128" y="-131" type="line"/>
      <point x="167" y="-80"/>
      <point x="208" y="-32"/>
      <point x="221" y="21" type="curve"/>
      <point x="175" y="35"/>
      <point x="149" y="77"/>
      <point x="149" y="120" type="curve" smooth="yes"/>
      <point x="149" y="171"/>
      <point x="187" y="224"/>
      <point x="256" y="224" type="curve" smooth="yes"/>
      <point x="323" y="224"/>
      <point x="360" y="170"/>
      <point x="360" y="120" type="curve" smooth="yes"/>
      <point x="360" y="54"/>
      <point x="315" y="-28"/>
      <point x="193" y="-131" type="curve"/>
    </contour>
  </outline>
</glyph>
<glyph name="dagger" format="1">
  <advance width="937"/>
  <unicode hex="2020"/>
  <outline>
    <contour>
      <point x="413" y="0" type="line"/>
      <point x="413" y="672" type="line"/>
      <point x="146" y="672" type="line"/>
      <point x="146" y="781" type="line"/>
      <point x="413" y="781" type="line"/>
      <point x="413" y="1049" type="line"/>
      <point x="522" y="1049" type="line"/>
      <point x="522" y="781" type="line"/>
      <point x="790" y="781" type="line"/>
      <point x="790" y="672" type="line"/>
      <point x="522" y="672" type="line"/>
      <point x="522" y="0" type="line"/>
    </contour>
  </outline>
</glyph>
<glyph name="daggerdbl" format="1">
  <advance width="943"/>
  <unicode hex="2021"/>
  <outline>
    <contour>
      <point x="416" y="0" type="line"/>
      <point x="416" y="250" type="line"/>
      <point x="149" y="250" type="line"/>
      <point x="149" y="359" type="line"/>
      <point x="416" y="359" type="line"/>
      <point x="416" y="672" type="line"/>
      <point x="149" y="672" type="line"/>
      <point x="149" y="781" type="line"/>
      <point x="416" y="781" type="line"/>
      <point x="416" y="1049" type="line"/>
      <point x="525" y="1049" type="line"/>
      <point x="525" y="781" type="line"/>
      <point x="793" y="781" type="line"/>
      <point x="793" y="672" type="line"/>
      <point x="525" y="672" type="line"/>
      <point x="525" y="359" type="line"/>
      <point x="793" y="359" type="line"/>
      <point x="793" y="250" type="line"/>
      <point x="525" y="250" type="line"/>
      <point x="525" y="0" type="line"/>
    </contour>
  </outline>
</glyph>
<glyph name="perthousand" format="1">
  <advance width="2047"/>
  <unicode hex="2030"/>
  <outline>
    <component base="o" xScale="0.6" yScale="0.6" xOffset="6.7998" yOffset="737"/>
    <component base="o" xScale="0.6" yScale="0.6" xOffset="733.8" yOffset="11"/>
    <component base="o" xScale="0.6" yScale="0.6" xOffset="1369.8" yOffset="11"/>
    <contour>
      <point x="300.8" y="0" type="line"/>
      <point x="1019.8" y="1241" type="line"/>
      <point x="1102.8" y="1241" type="line"/>
      <point x="381.8" y="0" type="line"/>
    </contour>
  </outline>
</glyph>
<glyph name="guilsinglleft" format="1">
  <advance width="512"/>
  <unicode hex="2039"/>
  <outline>
    <contour>
      <point x="413" y="189" type="curve" smooth="yes"/>
      <point x="407" y="189"/>
      <point x="400" y="190"/>
      <point x="391" y="194" type="curve"/>
      <point x="125" y="414" type="line"/>
      <point x="87" y="439"/>
      <point x="69" y="471"/>
      <point x="69" y="503" type="curve" smooth="yes"/>
      <point x="69" y="535"/>
      <point x="88" y="568"/>
      <point x="125" y="592" type="curve"/>
      <point x="391" y="813" type="line"/>
      <point x="400" y="817"/>
      <point x="407" y="818"/>
      <point x="413" y="818" type="curve" smooth="yes"/>
      <point x="431" y="818"/>
      <point x="443" y="806"/>
      <point x="443" y="792" type="curve" smooth="yes"/>
      <point x="443" y="782"/>
      <point x="436" y="773"/>
      <point x="426" y="762" type="curve"/>
      <point x="247" y="503" type="line"/>
      <point x="426" y="245" type="line"/>
      <point x="436" y="233"/>
      <point x="443" y="224"/>
      <point x="443" y="215" type="curve" smooth="yes"/>
      <point x="443" y="201"/>
      <point x="431" y="189"/>
    </contour>
  </outline>
</glyph>
<glyph name="guilsinglright" format="1">
  <advance width="512"/>
  <unicode hex="203A"/>
  <outline>
    <contour>
      <point x="100" y="189" type="curve" smooth="yes"/>
      <point x="82" y="189"/>
      <point x="70" y="201"/>
      <point x="70" y="215" type="curve" smooth="yes"/>
      <point x="70" y="224"/>
      <point x="77" y="233"/>
      <point x="87" y="245" type="curve"/>
      <point x="266" y="504" type="line"/>
      <point x="87" y="762" type="line"/>
      <point x="77" y="773"/>
      <point x="70" y="782"/>
      <point x="70" y="791" type="curve" smooth="yes"/>
      <point x="70" y="806"/>
      <point x="82" y="818"/>
      <point x="100" y="818" type="curve" smooth="yes"/>
      <point x="106" y="818"/>
      <point x="114" y="817"/>
      <point x="122" y="812" type="curve"/>
      <point x="388" y="592" type="line"/>
      <point x="426" y="568"/>
      <point x="444" y="535"/>
      <point x="444" y="504" type="curve" smooth="yes"/>
      <point x="444" y="471"/>
      <point x="425" y="438"/>
      <point x="388" y="414" type="curve"/>
      <point x="122" y="194" type="line"/>
      <point x="114" y="190"/>
      <point x="106" y="189"/>
    </contour>
  </outline>
</glyph>
<glyph name="fraction" format="1">
  <advance width="1130"/>
  <unicode hex="2044"/>
  <outline>
    <contour>
      <point x="60" y="0" type="line"/>
      <point x="946" y="1241" type="line"/>
      <point x="1065" y="1241" type="line"/>
      <point x="178" y="0" type="line"/>
    </contour>
  </outline>
</glyph>
<glyph name="foursuperior" format="1">
  <advance width="910"/>
  <unicode hex="2074"/>
  <outline>
    <contour>
      <point x="301" y="666.7" type="line"/>
      <point x="533" y="666.7" type="line"/>
      <point x="533" y="994.7" type="line"/>
    </contour>
    <contour>
      <point x="533" y="407.7" type="line"/>
      <point x="533" y="579.7" type="line"/>
      <point x="127" y="579.7" type="line"/>
      <point x="645" y="1273.7" type="line"/>
      <point x="645" y="666.7" type="line"/>
      <point x="774" y="666.7" type="line"/>
      <point x="774" y="579.7" type="line"/>
      <point x="645" y="579.7" type="line"/>
      <point x="645" y="407.7" type="line"/>
    </contour>
  </outline>
</glyph>
<glyph name="Euro" format="1">
  <advance width="1293"/>
  <unicode hex="20AC"/>
  <outline>
    <contour>
      <point x="844" y="-33" type="curve" smooth="yes"/>
      <point x="544" y="-33"/>
      <point x="284" y="140"/>
      <point x="202" y="434" type="curve"/>
      <point x="69" y="434" type="line"/>
      <point x="69" y="539" type="line"/>
      <point x="181" y="539" type="line"/>
      <point x="177" y="571"/>
      <point x="174" y="605"/>
      <point x="174" y="640" type="curve" smooth="yes"/>
      <point x="174" y="652"/>
      <point x="175" y="664"/>
      <point x="175" y="675" type="curve"/>
      <point x="69" y="675" type="line"/>
      <point x="69" y="780" type="line"/>
      <point x="188" y="780" type="line"/>
      <point x="249" y="1093"/>
      <point x="519" y="1275"/>
      <point x="826" y="1275" type="curve" smooth="yes"/>
      <point x="976" y="1275"/>
      <point x="1123" y="1227"/>
      <point x="1222" y="1170" type="curve"/>
      <point x="1222" y="1028" type="line"/>
      <point x="1105" y="1098"/>
      <point x="968" y="1136"/>
      <point x="837" y="1136" type="curve" smooth="yes"/>
      <point x="614" y="1136"/>
      <point x="411" y="1025"/>
      <point x="357" y="780" type="curve"/>
      <point x="782" y="780" type="line"/>
      <point x="782" y="675" type="line"/>
      <point x="342" y="675" type="line"/>
      <point x="341" y="664"/>
      <point x="341" y="652"/>
      <point x="341" y="640" type="curve" smooth="yes"/>
      <point x="341" y="605"/>
      <point x="343" y="571"/>
      <point x="348" y="539" type="curve"/>
      <point x="782" y="539" type="line"/>
      <point x="782" y="434" type="line"/>
      <point x="373" y="434" type="line"/>
      <point x="444" y="217"/>
      <point x="632" y="104"/>
      <point x="849" y="104" type="curve" smooth="yes"/>
      <point x="971" y="104"/>
      <point x="1102" y="140"/>
      <point x="1222" y="208" type="curve"/>
      <point x="1222" y="59" type="line"/>
      <point x="1126" y="11"/>
      <point x="986" y="-33"/>
    </contour>
  </outline>
</glyph>
<glyph name="trademark" format="1">
  <advance width="1972"/>
  <unicode hex="2122"/>
  <outline>
    <contour>
      <point x="1378.95" y="353.9" type="line"/>
      <point x="1054.15" y="926.5" type="line"/>
      <point x="963.85" y="342" type="line"/>
      <point x="849.75" y="342" type="line"/>
      <point x="996.05" y="1239.4" type="line"/>
      <point x="1378.25" y="554.8" type="line"/>
      <point x="1761.85" y="1239.4" type="line"/>
      <point x="1907.45" y="342" type="line"/>
      <point x="1794.05" y="342" type="line"/>
      <point x="1703.05" y="926.5" type="line"/>
    </contour>
    <contour>
      <point x="344.399" y="342" type="line"/>
      <point x="344.399" y="1113.4" type="line"/>
      <point x="72.7998" y="1113.4" type="line"/>
      <point x="72.7998" y="1210.7" type="line"/>
      <point x="732.2" y="1210.7" type="line"/>
      <point x="732.2" y="1113.4" type="line"/>
      <point x="460.6" y="1113.4" type="line"/>
      <point x="460.6" y="342" type="line"/>
    </contour>
  </outline>
</glyph>
<glyph name="minus" format="1">
  <advance width="951"/>
  <unicode hex="2212"/>
  <outline>
    <contour>
      <point x="153" y="540" type="line"/>
      <point x="153" y="648" type="line"/>
      <point x="797" y="648" type="line"/>
      <point x="797" y="540" type="line"/>
    </contour>
  </outline>
</glyph>
<glyph name="infinity" format="1">
  <advance width="1188"/>
  <unicode hex="221E"/>
  <outline>
    <contour>
      <point x="252" y="177" type="curve" smooth="yes"/>
      <point x="252" y="104.939"/>
      <point x="278.571" y="83"/>
      <point x="345" y="83" type="curve" smooth="yes"/>
      <point x="383.182" y="83"/>
      <point x="444.273" y="136"/>
      <point x="513" y="176" type="curve"/>
      <point x="447.436" y="215"/>
      <point x="393.792" y="268"/>
      <point x="341" y="268" type="curve" smooth="yes"/>
      <point x="280.661" y="268"/>
      <point x="252" y="241.16"/>
    </contour>
    <contour>
      <point x="936" y="177" type="curve" smooth="yes"/>
      <point x="936" y="241.198"/>
      <point x="904.119" y="268"/>
      <point x="837" y="268" type="curve" smooth="yes"/>
      <point x="787.277" y="268"/>
      <point x="736.752" y="215"/>
      <point x="675" y="176" type="curve"/>
      <point x="739.636" y="136"/>
      <point x="797.091" y="83"/>
      <point x="833" y="83" type="curve" smooth="yes"/>
      <point x="906.572" y="83"/>
      <point x="936" y="104.926"/>
    </contour>
    <contour>
      <point x="320.585" y="-38.4791" type="curve" smooth="yes"/>
      <point x="217.967" y="-38.4791"/>
      <point x="148" y="36.0091"/>
      <point x="148" y="177" type="curve" smooth="yes"/>
      <point x="148" y="316.573"/>
      <point x="207.354" y="394.907"/>
      <point x="309.114" y="394.907" type="curve" smooth="yes"/>
      <point x="434.328" y="394.907"/>
      <point x="523.757" y="266.068"/>
      <point x="594" y="235.512" type="curve"/>
      <point x="667.328" y="265.2"/>
      <point x="764.112" y="393.121"/>
      <point x="889.53" y="393.121" type="curve" smooth="yes"/>
      <point x="984.872" y="393.121"/>
      <point x="1040" y="318.629"/>
      <point x="1040" y="177" type="curve" smooth="yes"/>
      <point x="1040" y="34.0219"/>
      <point x="974.831" y="-37.1899"/>
      <point x="879.035" y="-37.1899" type="curve" smooth="yes"/>
      <point x="743.961" y="-37.1899"/>
      <point x="671.739" y="97.3298"/>
      <point x="594" y="119.706" type="curve"/>
      <point x="520.754" y="95.6084"/>
      <point x="453.434" y="-38.4791"/>
    </contour>
  </outline>
</glyph>
<glyph name="integral" format="1">
  <advance width="917"/>
  <unicode hex="222B"/>
  <outline>
    <contour>
      <point x="214" y="-319" type="curve" smooth="yes"/>
      <point x="164" y="-319"/>
      <point x="127" y="-310"/>
      <point x="67" y="-289" type="curve"/>
      <point x="78" y="-171" type="line"/>
      <point x="117" y="-183"/>
      <point x="143" y="-196"/>
      <point x="189" y="-196" type="curve" smooth="yes"/>
      <point x="271" y="-196"/>
      <point x="327" y="-152"/>
      <point x="339" y="-4" type="curve"/>
      <point x="421" y="902" type="line" smooth="yes"/>
      <point x="439" y="1096"/>
      <point x="528" y="1221"/>
      <point x="714" y="1221" type="curve" smooth="yes"/>
      <point x="770" y="1221"/>
      <point x="810" y="1208"/>
      <point x="852" y="1195" type="curve"/>
      <point x="841" y="1076" type="line"/>
      <point x="798" y="1088"/>
      <point x="778" y="1096"/>
      <point x="738" y="1096" type="curve" smooth="yes"/>
      <point x="652" y="1096"/>
      <point x="593" y="1051"/>
      <point x="580" y="902" type="curve" smooth="yes"/>
      <point x="498" y="0" type="line" smooth="yes"/>
      <point x="480" y="-197"/>
      <point x="390" y="-319"/>
    </contour>
  </outline>
</glyph>
<glyph name="approxequal" format="1">
  <advance width="1015"/>
  <unicode hex="2248"/>
  <outline>
    <contour>
      <point x="703" y="614" type="curve" smooth="yes"/>
      <point x="592" y="614"/>
      <point x="404" y="732"/>
      <point x="328" y="732" type="curve" smooth="yes"/>
      <point x="275" y="732"/>
      <point x="243" y="700"/>
      <point x="240" y="627" type="curve"/>
      <point x="136" y="627" type="line"/>
      <point x="137" y="790"/>
      <point x="222" y="850"/>
      <point x="318" y="850" type="curve" smooth="yes"/>
      <point x="450" y="850"/>
      <point x="610" y="735"/>
      <point x="698" y="735" type="curve" smooth="yes"/>
      <point x="744" y="735"/>
      <point x="773" y="773"/>
      <point x="776" y="836" type="curve"/>
      <point x="880" y="836" type="line"/>
      <point x="879" y="670"/>
      <point x="807" y="614"/>
    </contour>
    <contour>
      <point x="703" y="299" type="curve" smooth="yes"/>
      <point x="592" y="299"/>
      <point x="404" y="417"/>
      <point x="328" y="417" type="curve" smooth="yes"/>
      <point x="275" y="417"/>
      <point x="243" y="386"/>
      <point x="240" y="313" type="curve"/>
      <point x="136" y="313" type="line"/>
      <point x="137" y="476"/>
      <point x="222" y="535"/>
      <point x="318" y="535" type="curve" smooth="yes"/>
      <point x="450" y="535"/>
      <point x="610" y="420"/>
      <point x="698" y="420" type="curve" smooth="yes"/>
      <point x="744" y="420"/>
      <point x="773" y="458"/>
      <point x="776" y="521" type="curve"/>
      <point x="880" y="521" type="line"/>
      <point x="879" y="356"/>
      <point x="807" y="299"/>
    </contour>
  </outline>
</glyph>
<glyph name="lessequal" format="1">
  <advance width="1069"/>
  <unicode hex="2264"/>
  <outline>
    <contour>
      <point x="929" y="170" type="line"/>
      <point x="129" y="504" type="line"/>
      <point x="929" y="860" type="line"/>
      <point x="929" y="717" type="line"/>
      <point x="423" y="508" type="line"/>
      <point x="929" y="315" type="line"/>
    </contour>
    <contour>
      <point x="140" y="0" type="line"/>
      <point x="140" y="99" type="line"/>
      <point x="929" y="99" type="line"/>
      <point x="929" y="0" type="line"/>
    </contour>
  </outline>
</glyph>
<glyph name="greaterequal" format="1">
  <advance width="1069"/>
  <unicode hex="2265"/>
  <outline>
    <contour>
      <point x="140" y="860" type="line"/>
      <point x="940" y="531" type="line"/>
      <point x="140" y="170" type="line"/>
      <point x="140" y="318" type="line"/>
      <point x="645" y="527" type="line"/>
      <point x="140" y="720" type="line"/>
    </contour>
    <contour>
      <point x="143" y="0" type="line"/>
      <point x="143" y="99" type="line"/>
      <point x="932" y="99" type="line"/>
      <point x="932" y="0" type="line"/>
    </contour>
  </outline>
</glyph>
<glyph name="lozenge" format="1">
  <advance width="916"/>
  <unicode hex="25CA"/>
  <outline>
    <contour>
      <point x="462" y="199" type="line"/>
      <point x="668" y="650" type="line"/>
      <point x="453" y="1102" type="line"/>
      <point x="246" y="650" type="line"/>
    </contour>
    <contour>
      <point x="461" y="-26" type="line"/>
      <point x="121" y="650" type="line"/>
      <point x="453" y="1326" type="line"/>
      <point x="794" y="650" type="line"/>
    </contour>
  </outline>
</glyph>
<glyph name="uniFB00" format="1">
  <advance width="1231"/>
  <unicode hex="FB00"/>
  <outline>
    <contour>
      <point x="211" y="0" type="line"/>
      <point x="211" y="710" type="line"/>
      <point x="86" y="710" type="line"/>
      <point x="86" y="835" type="line"/>
      <point x="208" y="835" type="line"/>
      <point x="208" y="902" type="line" smooth="yes"/>
      <point x="208" y="1096"/>
      <point x="302" y="1221"/>
      <point x="488" y="1221" type="curve" smooth="yes"/>
      <point x="544" y="1221"/>
      <point x="596" y="1206"/>
      <point x="639" y="1193" type="curve"/>
      <point x="639" y="1062" type="line"/>
      <point x="602" y="1072"/>
      <point x="562" y="1087"/>
      <point x="515" y="1087" type="curve" smooth="yes"/>
      <point x="433" y="1087"/>
      <point x="367" y="1045"/>
      <point x="367" y="902" type="curve" smooth="yes"/>
      <point x="367" y="835" type="line"/>
      <point x="813" y="835" type="line"/>
      <point x="813" y="902" type="line" smooth="yes"/>
      <point x="813" y="1096"/>
      <point x="907" y="1221"/>
      <point x="1093" y="1221" type="curve" smooth="yes"/>
      <point x="1149" y="1221"/>
      <point x="1203" y="1206"/>
      <point x="1246" y="1193" type="curve"/>
      <point x="1246" y="1062" type="line"/>
      <point x="1208" y="1072"/>
      <point x="1167" y="1087"/>
      <point x="1120" y="1087" type="curve" smooth="yes"/>
      <point x="1038" y="1087"/>
      <point x="972" y="1045"/>
      <point x="972" y="902" type="curve" smooth="yes"/>
      <point x="972" y="835" type="line"/>
      <point x="1168" y="835" type="line"/>
      <point x="1168" y="710" type="line"/>
      <point x="974" y="710" type="line"/>
      <point x="974" y="0" type="line"/>
      <point x="816" y="0" type="line"/>
      <point x="816" y="710" type="line"/>
      <point x="370" y="710" type="line"/>
      <point x="370" y="0" type="line"/>
    </contour>
  </outline>
</glyph>
<glyph name="uniFB01" format="1">
  <advance width="1181"/>
  <unicode hex="FB01"/>
  <outline>
    <contour>
      <point x="927" y="1016" type="curve" smooth="yes"/>
      <point x="858" y="1016"/>
      <point x="821" y="1068"/>
      <point x="821" y="1120" type="curve" smooth="yes"/>
      <point x="821" y="1171"/>
      <point x="858" y="1224"/>
      <point x="927" y="1224" type="curve" smooth="yes"/>
      <point x="994" y="1224"/>
      <point x="1031" y="1170"/>
      <point x="1031" y="1120" type="curve" smooth="yes"/>
      <point x="1031" y="1068"/>
      <point x="994" y="1016"/>
    </contour>
    <contour>
      <point x="204" y="0" type="line"/>
      <point x="204" y="710" type="line"/>
      <point x="86" y="710" type="line"/>
      <point x="86" y="835" type="line"/>
      <point x="201" y="835" type="line"/>
      <point x="201" y="902" type="line" smooth="yes"/>
      <point x="201" y="1096"/>
      <point x="301.69" y="1221"/>
      <point x="502" y="1221" type="curve" smooth="yes"/>
      <point x="565.134" y="1221"/>
      <point x="630.522" y="1206"/>
      <point x="679" y="1193" type="curve"/>
      <point x="679" y="1062" type="line"/>
      <point x="636.308" y="1072"/>
      <point x="582.077" y="1087"/>
      <point x="529" y="1087" type="curve" smooth="yes"/>
      <point x="435.919" y="1087"/>
      <point x="361" y="1045"/>
      <point x="361" y="902" type="curve" smooth="yes"/>
      <point x="361" y="835" type="line"/>
      <point x="1005" y="835" type="line"/>
      <point x="1005" y="0" type="line"/>
      <point x="847" y="0" type="line"/>
      <point x="847" y="710" type="line"/>
      <point x="363" y="710" type="line"/>
      <point x="363" y="0" type="line"/>
    </contour>
  </outline>
</glyph>
<glyph name="uniFB02" format="1">
  <advance width="1245"/>
  <unicode hex="FB02"/>
  <outline>
    <contour>
      <point x="1015" y="-18" type="curve" smooth="yes"/>
      <point x="885" y="-18"/>
      <point x="781" y="63"/>
      <point x="781" y="229" type="curve" smooth="yes"/>
      <point x="781" y="1074" type="line"/>
      <point x="714.969" y="1079.2"/>
      <point x="631.092" y="1087"/>
      <point x="549" y="1087" type="curve" smooth="yes"/>
      <point x="444.838" y="1087"/>
      <point x="361" y="1045"/>
      <point x="361" y="902" type="curve" smooth="yes"/>
      <point x="361" y="835" type="line"/>
      <point x="541" y="835" type="line"/>
      <point x="541" y="710" type="line"/>
      <point x="363" y="710" type="line"/>
      <point x="363" y="0" type="line"/>
      <point x="204" y="0" type="line"/>
      <point x="204" y="710" type="line"/>
      <point x="86" y="710" type="line"/>
      <point x="86" y="835" type="line"/>
      <point x="201" y="835" type="line"/>
      <point x="201" y="902" type="line" smooth="yes"/>
      <point x="201" y="1096"/>
      <point x="308.381" y="1221"/>
      <point x="522" y="1221" type="curve" smooth="yes"/>
      <point x="681.366" y="1221"/>
      <point x="801.23" y="1197.1"/>
      <point x="939" y="1181" type="curve"/>
      <point x="939" y="257" type="line" smooth="yes"/>
      <point x="939" y="146"/>
      <point x="972" y="108"/>
      <point x="1045" y="108" type="curve" smooth="yes"/>
      <point x="1102" y="108"/>
      <point x="1163" y="125"/>
      <point x="1188" y="134" type="curve"/>
      <point x="1188" y="15" type="line"/>
      <point x="1160" y="4"/>
      <point x="1106" y="-18"/>
    </contour>
  </outline>
</glyph>
<glyph name="uniFB04" format="1">
  <advance width="1830"/>
  <unicode hex="FB04"/>
  <outline>
    <contour>
      <point x="1600" y="-18" type="curve" smooth="yes"/>
      <point x="1470" y="-18"/>
      <point x="1366" y="63"/>
      <point x="1366" y="229" type="curve" smooth="yes"/>
      <point x="1366" y="1074" type="line"/>
      <point x="1299.97" y="1079.2"/>
      <point x="1216.09" y="1087"/>
      <point x="1134" y="1087" type="curve" smooth="yes"/>
      <point x="1029.84" y="1087"/>
      <point x="946" y="1045"/>
      <point x="946" y="902" type="curve" smooth="yes"/>
      <point x="946" y="835" type="line"/>
      <point x="1126" y="835" type="line"/>
      <point x="1126" y="710" type="line"/>
      <point x="948" y="710" type="line"/>
      <point x="948" y="0" type="line"/>
      <point x="789" y="0" type="line"/>
      <point x="789" y="710" type="line"/>
      <point x="363" y="710" type="line"/>
      <point x="363" y="0" type="line"/>
      <point x="204" y="0" type="line"/>
      <point x="204" y="710" type="line"/>
      <point x="86" y="710" type="line"/>
      <point x="86" y="835" type="line"/>
      <point x="201" y="835" type="line"/>
      <point x="201" y="902" type="line" smooth="yes"/>
      <point x="201" y="1096"/>
      <point x="301.69" y="1221"/>
      <point x="502" y="1221" type="curve" smooth="yes"/>
      <point x="565.134" y="1221"/>
      <point x="630.522" y="1206"/>
      <point x="679" y="1193" type="curve"/>
      <point x="679" y="1062" type="line"/>
      <point x="636.308" y="1072"/>
      <point x="582.077" y="1087"/>
      <point x="529" y="1087" type="curve" smooth="yes"/>
      <point x="435.919" y="1087"/>
      <point x="361" y="1045"/>
      <point x="361" y="902" type="curve" smooth="yes"/>
      <point x="361" y="835" type="line"/>
      <point x="786" y="835" type="line"/>
      <point x="786" y="902" type="line" smooth="yes"/>
      <point x="786" y="1096"/>
      <point x="893.381" y="1221"/>
      <point x="1107" y="1221" type="curve" smooth="yes"/>
      <point x="1266.37" y="1221"/>
      <point x="1386.23" y="1197.1"/>
      <point x="1524" y="1181" type="curve"/>
      <point x="1524" y="257" type="line" smooth="yes"/>
      <point x="1524" y="146"/>
      <point x="1557" y="108"/>
      <point x="1630" y="108" type="curve" smooth="yes"/>
      <point x="1687" y="108"/>
      <point x="1748" y="125"/>
      <point x="1773" y="134" type="curve"/>
      <point x="1773" y="15" type="line"/>
      <point x="1745" y="4"/>
      <point x="1691" y="-18"/>
    </contour>
  </outline>
</glyph>
